<svg width="23" height="24" viewBox="0 0 23 24" fill="none" xmlns="http://www.w3.org/2000/svg">
<g clip-path="url(#clip0_286_980)">
<rect x="0.0695801" y="1.05359" width="22" height="22" rx="11" transform="rotate(-0.284725 0.0695801 1.05359)" fill="#4267B2"/>
<path d="M11.8951 19.3283L11.8618 12.6382L14.1074 12.6271L14.4307 10.0181L11.8489 10.031L11.8406 8.36634C11.8368 7.6115 12.0439 7.09599 13.1265 7.09061L14.5071 7.08311L14.4955 4.75124C14.2565 4.72076 13.4366 4.65387 12.4832 4.65861C10.4926 4.6685 9.13587 5.89026 9.14696 8.12163L9.15651 10.0444L6.9051 10.0556L6.91806 12.6629L9.1694 12.6517L9.20264 19.3418L11.8951 19.3283Z" fill="white"/>
</g>
<defs>
<clipPath id="clip0_286_980">
<rect width="22" height="22" fill="white" transform="translate(0.0695801 1.05359) rotate(-0.284725)"/>
</clipPath>
</defs>
</svg>
