<svg width="23" height="24" viewBox="0 0 23 24" fill="none" xmlns="http://www.w3.org/2000/svg">
<g clip-path="url(#clip0_286_1012)">
<rect x="0.0595703" y="1.09308" width="22" height="22" rx="11" transform="rotate(-0.284725 0.0595703 1.09308)" fill="#0077B5"/>
<path d="M17.2472 17.1985C16.5252 17.1849 15.8205 17.1884 15.0987 17.2092C14.9441 17.2099 14.9095 17.1757 14.9087 17.021C14.9024 15.7492 14.896 14.4601 14.8897 13.1883C14.8883 12.8961 14.8696 12.604 14.7823 12.3294C14.5201 11.437 13.4872 11.1155 12.7511 11.7208C12.3574 12.0321 12.2048 12.4625 12.2074 12.9782C12.2134 14.1813 12.2193 15.3844 12.2253 16.5875C12.2261 16.7422 12.2097 16.8969 12.2277 17.0687C12.2456 17.2061 12.177 17.2409 12.0566 17.2243C11.3175 17.2279 10.5957 17.2315 9.85663 17.2352C9.71913 17.2359 9.68458 17.2017 9.6839 17.0642C9.69571 15.9813 9.69033 14.8985 9.68486 13.7985C9.6782 12.4579 9.67154 11.1173 9.64777 9.79396C9.647 9.63927 9.68121 9.60473 9.8187 9.60405C10.5578 9.60037 11.2796 9.59679 12.0187 9.59311C12.1562 9.59243 12.1907 9.62663 12.1914 9.76413C12.1928 10.0391 12.1941 10.3141 12.1958 10.6407C12.2471 10.5889 12.2642 10.5716 12.2813 10.5543C12.9467 9.57131 13.8906 9.29162 15.0087 9.45794C16.2987 9.65778 17.1282 10.5474 17.3412 11.9214C17.3944 12.2477 17.4132 12.5742 17.4149 12.9007C17.4217 14.2757 17.4284 15.6335 17.4353 17.0085C17.436 17.146 17.4018 17.1977 17.2472 17.1985Z" fill="white"/>
<path d="M8.29085 13.4274C8.29683 14.6305 8.30281 15.8336 8.30879 17.0367C8.30956 17.1914 8.27544 17.2431 8.12075 17.2439C7.3988 17.2303 6.67702 17.251 5.95516 17.2546C5.81766 17.2553 5.78311 17.2211 5.78243 17.0836C5.77039 14.6602 5.75826 12.2196 5.74622 9.7962C5.74562 9.67589 5.77974 9.62416 5.91723 9.62347C6.65629 9.6198 7.39534 9.61613 8.13439 9.61246C8.28908 9.61169 8.30652 9.66316 8.30721 9.80066C8.27881 11.0039 8.28479 12.2071 8.29085 13.4274Z" fill="white"/>
<path d="M8.38224 7.61745C8.21378 8.30579 7.51106 8.7046 6.70258 8.57112C5.84253 8.43789 5.3571 7.5981 5.66237 6.77158C5.86606 6.25493 6.36295 5.94309 6.99897 5.95711C7.96137 5.93514 8.60114 6.70541 8.38224 7.61745Z" fill="white"/>
</g>
<defs>
<clipPath id="clip0_286_1012">
<rect width="22" height="22" fill="white" transform="translate(0.0595703 1.09308) rotate(-0.284725)"/>
</clipPath>
</defs>
</svg>
