<svg width="23" height="23" viewBox="0 0 23 23" fill="none" xmlns="http://www.w3.org/2000/svg">
<g clip-path="url(#clip0_286_991)">
<rect x="0.065918" y="0.682068" width="22" height="22" rx="11" transform="rotate(-0.284725 0.065918 0.682068)" fill="#1DA1F2"/>
<path d="M16.4996 9.22291C16.5002 9.34322 16.5008 9.46353 16.5013 9.56665C16.519 13.1244 13.8238 17.2457 8.87389 17.2703C7.34422 17.2779 5.93264 16.838 4.72577 16.0877C4.93211 16.1039 5.15563 16.12 5.36187 16.119C6.61654 16.1127 7.78314 15.6772 8.70767 14.9508C7.52166 14.9395 6.52087 14.1538 6.18902 13.0898C6.36106 13.1233 6.51583 13.1398 6.70489 13.1388C6.94551 13.1376 7.18597 13.102 7.40906 13.0322C6.17038 12.7977 5.23688 11.7195 5.23039 10.4133C5.23031 10.3961 5.23031 10.3961 5.23022 10.3789C5.59218 10.5834 6.00527 10.7016 6.45223 10.7166C5.72797 10.2389 5.24263 9.41635 5.23793 8.47105C5.23545 7.97262 5.37064 7.50788 5.59211 7.11146C6.92365 8.73767 8.92267 9.79338 11.1576 9.90259C11.1051 9.71378 11.0868 9.49043 11.0858 9.28418C11.0784 7.78889 12.2755 6.5798 13.7708 6.57237C14.5442 6.56853 15.2505 6.89158 15.7343 7.40481C16.3525 7.28143 16.9185 7.05517 17.4498 6.74315C17.2467 7.38011 16.8196 7.89786 16.2713 8.24434C16.821 8.17286 17.3359 8.0328 17.816 7.80697C17.475 8.35867 17.0305 8.84214 16.4996 9.22291Z" fill="white"/>
</g>
<defs>
<clipPath id="clip0_286_991">
<rect width="22" height="22" fill="white" transform="translate(0.065918 0.682068) rotate(-0.284725)"/>
</clipPath>
</defs>
</svg>
