<svg width="25" height="25" viewBox="0 0 25 25" fill="none" xmlns="http://www.w3.org/2000/svg">
<mask id="mask0_286_1002" style="mask-type:alpha" maskUnits="userSpaceOnUse" x="0" y="0" width="25" height="25">
<rect x="0.117432" y="0.240845" width="24" height="24" fill="#D9D9D9"/>
</mask>
<g mask="url(#mask0_286_1002)">
<path d="M15.5174 18.1908C15.0674 18.2075 14.6384 18.2202 14.2304 18.2288C13.8218 18.2368 13.4591 18.2408 13.1424 18.2408H12.1174C10.9341 18.2408 9.82577 18.2242 8.79243 18.1908C7.9091 18.1575 7.0381 18.1115 6.17943 18.0528C5.32143 17.9948 4.70076 17.9158 4.31743 17.8158C3.8841 17.6992 3.5091 17.4825 3.19243 17.1658C2.87577 16.8492 2.6591 16.4742 2.54243 16.0408C2.44243 15.6575 2.36343 15.1908 2.30543 14.6408C2.24676 14.0908 2.20076 13.5658 2.16743 13.0658C2.1341 12.4658 2.11743 11.8575 2.11743 11.2408C2.11743 10.6242 2.1341 10.0158 2.16743 9.41584C2.20076 8.91584 2.24676 8.39084 2.30543 7.84084C2.36343 7.29084 2.44243 6.82418 2.54243 6.44084C2.6591 6.00751 2.87577 5.63251 3.19243 5.31584C3.5091 4.99918 3.8841 4.78251 4.31743 4.66584C4.70076 4.56584 5.32143 4.48651 6.17943 4.42784C7.0381 4.36984 7.9091 4.32418 8.79243 4.29084C9.82577 4.25751 10.9341 4.24084 12.1174 4.24084C13.3008 4.24084 14.4091 4.25751 15.4424 4.29084C16.3258 4.32418 17.1968 4.36984 18.0554 4.42784C18.9134 4.48651 19.5341 4.56584 19.9174 4.66584C20.3508 4.78251 20.7258 4.99918 21.0424 5.31584C21.3591 5.63251 21.5758 6.00751 21.6924 6.44084C21.7924 6.82418 21.8714 7.29084 21.9294 7.84084C21.9881 8.39084 22.0341 8.91584 22.0674 9.41584C22.1008 10.0158 22.1174 10.6242 22.1174 11.2408V11.6658C21.8008 11.5325 21.4758 11.4285 21.1424 11.3538C20.8091 11.2785 20.4674 11.2408 20.1174 11.2408C18.7341 11.2408 17.5548 11.7282 16.5794 12.7028C15.6048 13.6782 15.1174 14.8575 15.1174 16.2408C15.1174 16.5908 15.1508 16.9282 15.2174 17.2528C15.2841 17.5782 15.3841 17.8908 15.5174 18.1908ZM10.1174 14.2408L15.3174 11.2408L10.1174 8.24084V14.2408ZM19.1174 19.2408V17.2408H17.1174V15.2408H19.1174V13.2408H21.1174V15.2408H23.1174V17.2408H21.1174V19.2408H19.1174Z" fill="#DE3924"/>
</g>
</svg>
