<svg xmlns="http://www.w3.org/2000/svg" xmlns:xlink="http://www.w3.org/1999/xlink" viewBox="0 0 762.71 570.68"><defs><style>.cls-1,.cls-10,.cls-12,.cls-13,.cls-17,.cls-18,.cls-20,.cls-22,.cls-23{fill:none;}.cls-2{isolation:isolate;}.cls-3{clip-path:url(#clip-path);}.cls-24,.cls-4{fill:#212041;}.cls-14,.cls-5{fill:#242470;}.cls-16,.cls-6{fill:#4337a4;}.cls-7{fill:#6f50d1;}.cls-11,.cls-8{fill:#00cfff;}.cls-8{mix-blend-mode:screen;}.cls-9{fill:#c956ee;}.cls-10{stroke:#242470;}.cls-10,.cls-12,.cls-13,.cls-17,.cls-18,.cls-20,.cls-22,.cls-23{stroke-miterlimit:10;}.cls-10,.cls-12,.cls-17,.cls-22{stroke-width:0.5px;}.cls-12{stroke:#212041;}.cls-13,.cls-17,.cls-20{stroke:#6554bf;}.cls-14,.cls-16,.cls-21,.cls-24,.cls-29,.cls-36{mix-blend-mode:multiply;}.cls-14,.cls-16,.cls-21{opacity:0.2;}.cls-15{fill:#be94ff;}.cls-18{stroke:#9657ec;}.cls-19,.cls-21{fill:#9848b5;}.cls-20,.cls-23{stroke-width:0.25px;}.cls-22{stroke:#c956ee;}.cls-23{stroke:#fff;}.cls-24,.cls-35{opacity:0.4;}.cls-25{clip-path:url(#clip-path-2);}.cls-26{fill:#00a8c4;}.cls-27,.cls-30{fill:#fff;}.cls-28{fill:aqua;}.cls-29,.cls-31{fill:#6554bf;}.cls-29,.cls-36{opacity:0.3;}.cls-30,.cls-32{opacity:0.7;}.cls-33{fill:#9657ec;}.cls-34{fill:#4f3b82;}.cls-37{fill:#553d8b;}.cls-38{clip-path:url(#clip-path-3);}</style><clipPath id="clip-path" transform="translate(33.73 13.19)"><rect class="cls-1" width="750" height="500"/></clipPath><clipPath id="clip-path-2" transform="translate(33.73 13.19)"><polygon class="cls-1" points="496.34 79.88 483.75 172.28 325.2 183.51 325.2 83.06 496.34 79.88"/></clipPath><clipPath id="clip-path-3" transform="translate(33.73 13.19)"><path class="cls-1" d="M613.57,328l-25.85-6.81-6.15-19.64s-26.36,31.1-34.77,39-15.93,22.3-18,24.73,2.89,15.76,7.3,23.14S584.68,361,593,354.21,613.57,328,613.57,328Z"/></clipPath></defs><g class="cls-2"><g id="Layer_2" data-name="Layer 2"><g id="OBJECTS"><g class="cls-3"><path class="cls-4" d="M31.57,81.45s-57.46,56.38-62.25,61-.23,9.6-.23,9.6l70-54.89Z" transform="translate(33.73 13.19)"/><path class="cls-4" d="M34.86,104s-61.24,51.34-66.24,56.22-.47,4.85-.47,4.85l75-48.39Z" transform="translate(33.73 13.19)"/><path class="cls-5" d="M44.33,13S7.94,23.32,8.64,39.69,52.77,162.1,64.9,162.44c14,.38,21.53.35,21.53.35S67,105.67,61.75,81.93,44.33,13,44.33,13Z" transform="translate(33.73 13.19)"/><path class="cls-6" d="M44.33,13c-17.14,6.9,9.81,63,21.78,97.64,5.71,16.5,13.87,44,15.91,48.46s4.75,5.73,10.41-.69,18.73-10.56,18.73-10.56-22.57-86.12-24.69-105S76.69,0,44.33,13Z" transform="translate(33.73 13.19)"/><path class="cls-7" d="M59.68,13.9a14.38,14.38,0,0,0-4.5,8.88c-1.22,8,.94,16.57,3.53,24.16,2.11,6.17,4.65,12.61,8.36,18s8.69,9.9,12.33,15.39S85,91.73,86.41,98c2.86,12.49,5.71,25.46,16.7,33.48a35.44,35.44,0,0,0,4.54,2.76c-6.43-25-19.58-77.23-21.18-91.39-1.4-12.44-5.22-27.16-17-32C66,10.92,62.36,11.57,59.68,13.9Z" transform="translate(33.73 13.19)"/><path class="cls-5" d="M82.14,35.48c3.44,12.13-1.82,24.24-11.75,27.05S49.64,57.79,46.21,45.66,48,21.42,58,18.61,78.7,23.35,82.14,35.48Z" transform="translate(33.73 13.19)"/><path class="cls-7" d="M79.38,36.26c2.91,10.27-1.54,20.52-9.94,22.9S51.87,55.15,49,44.88,50.51,24.36,58.91,22,76.47,26,79.38,36.26Z" transform="translate(33.73 13.19)"/><path class="cls-8" d="M60.21,26.6c-6.31,1.79-9.66,9.49-7.47,17.21s9.08,12.52,15.39,10.74,9.66-9.5,7.47-17.22S66.53,24.81,60.21,26.6Zm7.13,25.16c-5.05,1.43-10.57-2.42-12.32-8.6S56,30.81,61,29.38,71.58,31.8,73.33,38,72.4,50.33,67.34,51.76Z" transform="translate(33.73 13.19)"/><path class="cls-5" d="M92.55,83.24c2.75,9.71-1.46,19.41-9.41,21.66s-16.61-3.8-19.36-13.51S65.24,72,73.18,69.73,89.8,73.53,92.55,83.24Z" transform="translate(33.73 13.19)"/><path class="cls-7" d="M90.34,83.87c2.33,8.22-1.23,16.43-8,18.33S68.31,99,66,90.77s1.24-16.43,8-18.34S88,75.65,90.34,83.87Z" transform="translate(33.73 13.19)"/><path class="cls-9" d="M75,76.13c-5,1.43-7.73,7.6-6,13.78s7.27,10,12.32,8.6,7.74-7.61,6-13.79S80.05,74.69,75,76.13ZM80.7,96.28c-4,1.14-8.47-1.94-9.87-6.89s.75-9.89,4.79-11,8.47,1.93,9.87,6.88S84.75,95.13,80.7,96.28Z" transform="translate(33.73 13.19)"/><path class="cls-10" d="M76.21,80.44c-3.08.87-4.7,4.66-3.63,8.46s4.45,6.16,7.53,5.29,4.71-4.66,3.63-8.46S79.3,79.57,76.21,80.44Zm3.51,12.38c-2.47.7-5.17-1.2-6-4.24s.45-6.07,2.91-6.77,5.17,1.2,6,4.24S82.19,92.12,79.72,92.82Z" transform="translate(33.73 13.19)"/><path class="cls-10" d="M99.18,124.39c1.58,5.39-.77,10.84-5.26,12.15s-9.41-2-11-7.39.77-10.83,5.26-12.15S97.6,119,99.18,124.39Z" transform="translate(33.73 13.19)"/><path class="cls-10" d="M78.42,136.15s2.82,9.77,5.2,15.7c3.33,2,3.33,2,5.12,2.39s6.12-2.41,6.12-2.41,7.73-3.37,10.57-5.58" transform="translate(33.73 13.19)"/><path class="cls-10" d="M101.65,123.66c2.06,7-1,14.13-6.86,15.85s-12.27-2.6-14.33-9.63,1-14.13,6.86-15.85S99.58,116.63,101.65,123.66Z" transform="translate(33.73 13.19)"/><polygon class="cls-6" points="76.55 390.62 167.98 456.74 167.98 570.68 77.27 546.66 76.55 390.62"/><polygon class="cls-11" points="137.68 498.06 107.15 480.38 96 484.37 95.72 483.59 107.23 479.47 107.4 479.56 138.1 497.34 137.68 498.06"/><polygon class="cls-11" points="139.05 504.15 108.51 486.47 97.37 490.46 97.09 489.68 108.59 485.56 108.76 485.66 139.46 503.44 139.05 504.15"/><polygon class="cls-11" points="136.39 492.77 105.86 475.08 94.72 479.07 94.44 478.3 105.94 474.18 106.11 474.27 136.81 492.05 136.39 492.77"/><path class="cls-8" d="M63,474.83a2.12,2.12,0,1,0,2.6,1.5A2.14,2.14,0,0,0,63,474.83Z" transform="translate(33.73 13.19)"/><path class="cls-8" d="M61.59,468.74a2.12,2.12,0,1,0,2.59,1.5A2.12,2.12,0,0,0,61.59,468.74Z" transform="translate(33.73 13.19)"/><path class="cls-8" d="M60.3,463.45a2.11,2.11,0,1,0,2.59,1.5A2.12,2.12,0,0,0,60.3,463.45Z" transform="translate(33.73 13.19)"/><polygon class="cls-11" points="145.69 484.22 114.83 466.34 112.67 454.32 113.48 454.17 115.57 465.82 146.11 483.5 145.69 484.22"/><polygon class="cls-11" points="151.66 482.37 120.79 464.5 118.64 452.47 119.45 452.32 121.54 463.97 152.08 481.65 151.66 482.37"/><polygon class="cls-11" points="140.46 485.73 109.6 467.86 107.44 455.84 108.25 455.69 110.34 467.34 140.88 485.02 140.46 485.73"/><path class="cls-8" d="M83.27,439.74a2.12,2.12,0,1,1,2.59,1.51A2.11,2.11,0,0,1,83.27,439.74Z" transform="translate(33.73 13.19)"/><path class="cls-8" d="M77.3,441.59a2.12,2.12,0,1,1,2.59,1.51A2.11,2.11,0,0,1,77.3,441.59Z" transform="translate(33.73 13.19)"/><path class="cls-8" d="M72.07,443.11a2.12,2.12,0,1,1,2.59,1.5A2.12,2.12,0,0,1,72.07,443.11Z" transform="translate(33.73 13.19)"/><rect class="cls-11" x="82.4" y="441.43" width="0.83" height="42.96" transform="translate(-325.56 315.82) rotate(-59.93)"/><path class="cls-8" d="M63.67,450.1a2.12,2.12,0,1,0,2.6,1.5A2.12,2.12,0,0,0,63.67,450.1Z" transform="translate(33.73 13.19)"/><path class="cls-9" d="M48.23,435.17s28.86-22.81,32.2-25.36L50.3,388.58s-1.26.67-2,4.55S48.23,435.17,48.23,435.17Z" transform="translate(33.73 13.19)"/><path class="cls-9" d="M95.13,419.37l33.3,25.09s2.24,1.8,2.24,9c0,4.57-.69,7.1-2.24,6s-31.92-17.11-33.3-20.31S95.13,419.37,95.13,419.37Z" transform="translate(33.73 13.19)"/><path class="cls-7" d="M39.56,523.88s14.38-37,19.81-39.8c7.7-3.93,19.8,5.17,27.11,9.37s30.71,25.33,30.71,25.33Z" transform="translate(33.73 13.19)"/><line class="cls-12" x1="158.84" y1="460.86" x2="158.84" y2="522.54"/><line class="cls-12" x1="84.78" y1="417.15" x2="84.78" y2="541.78"/><polyline class="cls-4" points="253.95 418.35 334.62 372.4 334.62 523.53 253.95 521.09 253.95 418.35"/><path class="cls-6" d="M242.87,397.9a109.89,109.89,0,0,1,2.56,20.36c.21,7.09-.47,14.12-.63,21.2-.15,6.81.08,13.93,2.5,20.38,2.23,5.93,6.68,12.75,13.21,14.47,6.16,1.63,12.34-1.23,17.35-4.66,5.82-4,10.24-9.58,15.89-13.75a76.1,76.1,0,0,1,7.14-4.56V359.2L241.64,393Q242.32,395.41,242.87,397.9Z" transform="translate(33.73 13.19)"/><polyline class="cls-4" points="169.06 455.6 249.73 409.65 249.73 516.18 169.06 537.45 169.06 455.6"/><line class="cls-13" x1="176.89" y1="482.17" x2="249.73" y2="445.5"/><line class="cls-13" x1="176.89" y1="514.84" x2="249.73" y2="478.18"/><path class="cls-4" d="M270.33,448.33A30.38,30.38,0,0,1,246,451.28l34.67-17S277.88,444,270.33,448.33Z" transform="translate(33.73 13.19)"/><path class="cls-4" d="M265,416.58a30.4,30.4,0,0,1-24.34,2.94l34.67-17S272.54,412.21,265,416.58Z" transform="translate(33.73 13.19)"/><path class="cls-4" d="M276.67,481.87a30.43,30.43,0,0,1-24.34,2.95l34.66-17S284.21,477.5,276.67,481.87Z" transform="translate(33.73 13.19)"/><line class="cls-13" x1="257.87" y1="440.64" x2="330.7" y2="403.97"/><line class="cls-13" x1="261.78" y1="472.99" x2="334.62" y2="436.32"/><line class="cls-13" x1="261.78" y1="510.25" x2="334.62" y2="473.58"/><polygon class="cls-5" points="65.84 323.49 65.84 519.81 45.84 519.81 45.84 324.99 65.84 323.49"/><polygon class="cls-5" points="518.89 225.31 518.89 372.1 498.89 372.1 498.89 226.43 518.89 225.31"/><path class="cls-14" d="M472.84,276.21c4.07-4.19,8.9-7.42,12-12.53.13-.22.24-.45.36-.67V212.12l-20,1.12v77.1A31.87,31.87,0,0,1,472.84,276.21Z" transform="translate(33.73 13.19)"/><polygon class="cls-5" points="196.89 389.83 196.89 536.62 176.89 536.62 176.89 390.95 196.89 389.83"/><path class="cls-14" d="M152.17,472.62A50.66,50.66,0,0,0,162,457.67c.4-.94.78-1.89,1.13-2.85V376.64l-20,1.12v107.9A42.42,42.42,0,0,1,152.17,472.62Z" transform="translate(33.73 13.19)"/><polygon class="cls-6" points="561.86 226.67 181.92 434.02 26.71 322.11 403.78 185.75 561.86 226.67"/><polygon class="cls-5" points="181.92 459.7 181.92 434.02 26.71 322.11 26.71 338.48 181.92 459.7"/><polygon class="cls-5" points="181.92 459.7 561.86 241.05 561.86 226.67 181.92 434.02 181.92 459.7"/><polygon class="cls-9" points="181.92 440.6 26.71 330.22 26.71 322.11 181.92 434.02 181.92 440.6"/><polygon class="cls-15" points="181.92 441.96 26.71 329.54 26.71 326.56 181.92 438.47 181.92 441.96"/><path class="cls-16" d="M201.21,379.37c-14.51,1.89-29.38,4.95-44.05,3.09-11.24-1.43-23.07-5.9-31.25-14-12.73-12.65-11.41-30.86-3.75-45.88a84.39,84.39,0,0,1,16.77-22.41c8.44-8.11,18.53-14,28.65-19.76C219,251.12,290.08,226.22,348.5,218c19.4-2.73,88.44,2.13,110.51-21.73l-89-23.71L-7,308.91,148.19,420.82,226,378.37A136.41,136.41,0,0,0,201.21,379.37Z" transform="translate(33.73 13.19)"/><polygon class="cls-11" points="191.12 326.08 191.12 329.24 265.44 378.5 473.56 263.69 473.56 261.11 400.54 235.85 191.12 326.08"/><polygon class="cls-4" points="473.56 261.11 401.68 232.18 191.12 326.08 266.14 371.47 473.56 261.11"/><polyline class="cls-17" points="204.26 323.97 262.01 362.66 276.19 360.95 300.62 347.17"/><line class="cls-17" x1="218.44" y1="316.85" x2="218.09" y2="327.68"/><line class="cls-17" x1="222.27" y1="316.85" x2="221.93" y2="327.68"/><line class="cls-17" x1="445.95" y1="259.56" x2="445.61" y2="270.38"/><line class="cls-17" x1="449.79" y1="259.56" x2="449.44" y2="270.38"/><polyline class="cls-17" points="388.23 242.26 396.53 238.12 405.01 238.12 457.87 260.84"/><path class="cls-18" d="M324,188.07c-2.14,5.94-6.18,10.83,1.6,15,5.49,2.95,13.14,1.66,19.27,2.21,6.68.6,9.4,3.63,11,10.26,1.39,5.77,2.53,17.26,10.78,16.47" transform="translate(33.73 13.19)"/><path class="cls-19" d="M360.06,245.12c-2.16-2.55-4.73-10.27,3.67-13.29s10.13-3.33,18.34.54c9.26,4.36,14.14,10.11,13.88,14s-1.88,8.42-6.93,10.31c-6.9,2.57-14.81.76-17.43-3.33s-3.17-5.68-7.35-7S361.45,246.76,360.06,245.12Z" transform="translate(33.73 13.19)"/><path class="cls-5" d="M375.23,241.93c4,3.45,9.89,2,10.16-2,.25-3.77-12.83-9.73-14.33-9.79-1.27-.06-.78-.67-4.43.07-.55.11-3.1,1.18-2.9,1.58C365.23,234.84,375.23,241.93,375.23,241.93Z" transform="translate(33.73 13.19)"/><path class="cls-5" d="M360.31,245.64a7,7,0,0,1-.48-8.21c2.11-2.59,5.85,1.65,7.28,3,5.16,4.73,8.77,13.09,16.36,14.5,3.74.7,7.77-.26,11.86-5-1.64,7.55-11.26,9.07-14.93,8.69a17,17,0,0,1-8-3c-2.26-1.75-3.3-4.51-5.63-6.07C365.17,248.48,361.51,247.09,360.31,245.64Z" transform="translate(33.73 13.19)"/><path class="cls-20" d="M364.71,240.71a1.07,1.07,0,1,1-1.07-1.09A1.08,1.08,0,0,1,364.71,240.71Z" transform="translate(33.73 13.19)"/><path class="cls-20" d="M362.57,243a1.07,1.07,0,1,1-1.07-1.09A1.08,1.08,0,0,1,362.57,243Z" transform="translate(33.73 13.19)"/><path class="cls-20" d="M365.56,245.82a1,1,0,1,1-1-.88A.92.92,0,0,1,365.56,245.82Z" transform="translate(33.73 13.19)"/><path class="cls-20" d="M366.43,243a.86.86,0,1,1-.86-.87A.85.85,0,0,1,366.43,243Z" transform="translate(33.73 13.19)"/><path class="cls-20" d="M370,245.57a1,1,0,1,1-1-1.12A1.06,1.06,0,0,1,370,245.57Z" transform="translate(33.73 13.19)"/><path class="cls-20" d="M371.19,248.53a1,1,0,1,1-1-1.13A1.07,1.07,0,0,1,371.19,248.53Z" transform="translate(33.73 13.19)"/><path class="cls-20" d="M371.85,251.53a.84.84,0,1,1-.83-.93A.89.89,0,0,1,371.85,251.53Z" transform="translate(33.73 13.19)"/><path class="cls-20" d="M374.26,250.6a.84.84,0,1,1-.84-.93A.89.89,0,0,1,374.26,250.6Z" transform="translate(33.73 13.19)"/><path class="cls-20" d="M368,248.27a.71.71,0,1,1-.69-.87A.8.8,0,0,1,368,248.27Z" transform="translate(33.73 13.19)"/><path class="cls-4" d="M368,232.62a1.85,1.85,0,0,1,2-1.27c1.67,0,3.55,1.23,4.61,2.13s1.48,1.57.89,2.18a1.63,1.63,0,0,1-1.39.69C373.31,236.46,368,232.62,368,232.62Z" transform="translate(33.73 13.19)"/><path class="cls-5" d="M368,232.1a1.86,1.86,0,0,1,2-1.28,8.27,8.27,0,0,1,4.61,2.13c1.06.9,1.48,1.57.89,2.19s-.94.35-1.9.29C372.82,235.39,368,232.1,368,232.1Z" transform="translate(33.73 13.19)"/><polygon class="cls-5" points="280.76 336.69 241.29 311.77 240.27 316.68 277.98 342.9 280.76 344.83 280.76 336.69"/><polygon class="cls-6" points="278.35 340.19 244.08 319.33 244.08 319.33 280.76 344.83 278.35 340.19"/><polygon class="cls-19" points="241.29 311.77 280.76 336.69 396.28 275.77 361.01 259.86 241.29 311.77"/><path class="cls-21" d="M232.68,299.8c1.08-8.16,10.89-12,17.67-14,8.66-2.63,17.86-3.23,26.46-6a182.1,182.1,0,0,0,23.11-9c6.87-3.28,13.26-7.56,20.31-10.46a43.43,43.43,0,0,1,22.11-2.7c4.29.5,8.58,1.23,12.89,1.63l-28-12.61L207.56,298.58l39,24.6C248.4,312.82,231.25,310.57,232.68,299.8Z" transform="translate(33.73 13.19)"/><polygon class="cls-5" points="396.28 275.77 280.76 336.69 280.76 344.83 398.31 279.02 396.28 275.77"/><polygon class="cls-9" points="248.78 311.4 360.82 262.44 362.49 263.15 251.25 313.19 248.78 311.4"/><polygon class="cls-9" points="358.39 275.25 352.07 278.29 357.85 281.9 364.09 278.77 358.39 275.25"/><polygon class="cls-11" points="350.62 277.38 356.94 274.36 352.77 271.78 346.39 274.75 350.62 277.38"/><polygon class="cls-9" points="304.04 299.69 309.51 297.06 304.77 294.13 299.25 296.7 304.04 299.69"/><polygon class="cls-9" points="365.75 271.7 359.64 274.65 365.28 278.17 371.31 275.15 365.75 271.7"/><polygon class="cls-9" points="354.07 271.17 358.2 273.75 364.32 270.82 360.24 268.3 354.07 271.17"/><polygon class="cls-9" points="336.71 284.04 342.19 281.42 337.84 278.73 332.32 281.3 336.71 284.04"/><polygon class="cls-9" points="310.72 296.48 317.8 293.1 313.16 290.23 306.02 293.55 310.72 296.48"/><polygon class="cls-7" points="319 292.52 327.61 288.4 323.08 285.61 314.4 289.65 319 292.52"/><polygon class="cls-9" points="328.87 287.8 335.45 284.64 331.02 281.9 324.38 285 328.87 287.8"/><polygon class="cls-9" points="343.44 280.82 349.36 277.98 345.1 275.36 339.13 278.13 343.44 280.82"/><polygon class="cls-9" points="311.09 298.04 305.62 300.67 312.23 304.8 317.63 302.08 311.09 298.04"/><polygon class="cls-9" points="304.42 301.25 297.46 304.6 304.21 308.81 311.09 305.37 304.42 301.25"/><polygon class="cls-9" points="288.28 316.81 296.05 312.92 289.1 308.63 281.24 312.42 288.28 316.81"/><polygon class="cls-9" points="350.82 278.89 344.91 281.74 350.82 285.43 356.66 282.5 350.82 278.89"/><polygon class="cls-9" points="296.26 305.18 290.36 308.02 297.24 312.32 303.07 309.39 296.26 305.18"/><polygon class="cls-9" points="343.67 282.34 338.2 284.97 344.23 288.73 349.63 286.02 343.67 282.34"/><polygon class="cls-9" points="336.96 285.57 330.38 288.74 336.55 292.59 343.04 289.33 336.96 285.57"/><polygon class="cls-9" points="319.35 294.05 312.28 297.46 318.77 301.51 325.75 298.01 319.35 294.05"/><polygon class="cls-9" points="329.13 289.34 320.55 293.48 326.89 297.44 335.36 293.19 329.13 289.34"/><polygon class="cls-9" points="366.33 280.16 360.04 283.27 365.29 286.54 371.46 283.33 366.33 280.16"/><polygon class="cls-9" points="378.61 274.08 374.79 275.98 379.69 279.03 383.85 276.86 378.61 274.08"/><polygon class="cls-9" points="373.6 276.56 367.52 279.57 372.59 282.73 378.56 279.62 373.6 276.56"/><polygon class="cls-9" points="358.85 283.85 352.96 286.77 358.38 290.15 364.16 287.14 358.85 283.85"/><polygon class="cls-9" points="372.5 274.55 378.87 271.35 372.99 268.21 366.98 271.11 372.5 274.55"/><polygon class="cls-9" points="270.57 317.55 262.57 321.41 269.96 326.01 277.85 322.05 270.57 317.55"/><polygon class="cls-6" points="279.51 323.08 271.95 326.81 279.68 331.21 286.72 327.54 279.51 323.08"/><polygon class="cls-9" points="351.78 287.35 346.33 290.04 351.91 293.53 357.26 290.73 351.78 287.35"/><polygon class="cls-9" points="263.65 313.28 255.82 316.92 261.5 320.05 268.88 316.51 263.65 313.28"/><polygon class="cls-9" points="365.57 270.22 371.57 267.35 366.79 265.25 361.53 267.7 365.57 270.22"/><polygon class="cls-9" points="270.15 315.91 278.32 312 273.2 308.83 264.97 312.67 270.15 315.91"/><polygon class="cls-9" points="279.59 311.39 287.47 307.62 282.46 304.52 274.51 308.22 279.59 311.39"/><polygon class="cls-9" points="287.09 317.41 279.98 313.02 271.83 316.95 279.04 321.45 287.09 317.41"/><polygon class="cls-9" points="295.86 303.6 302.83 300.27 298 297.28 290.98 300.56 295.86 303.6"/><polygon class="cls-9" points="288.74 307.01 294.65 304.18 289.72 301.14 283.77 303.91 288.74 307.01"/><polygon class="cls-9" points="295.8 322.8 288.81 318.48 280.7 322.49 287.85 326.95 295.8 322.8"/><polygon class="cls-9" points="345.14 290.63 338.59 293.87 344.36 297.47 350.78 294.12 345.14 290.63"/><polygon class="cls-9" points="337.41 294.45 299.02 313.43 305.73 317.62 343.23 298.05 337.41 294.45"/><polygon class="cls-9" points="297.83 314.02 290 317.89 296.93 322.21 304.6 318.21 297.83 314.02"/><line class="cls-22" x1="281.25" y1="332.26" x2="386.1" y2="277.36"/><line class="cls-23" x1="252.82" y1="314.19" x2="364.31" y2="263.76"/><polygon class="cls-23" points="358.39 275.25 352.07 278.29 357.85 281.9 364.09 278.77 358.39 275.25"/><polygon class="cls-23" points="350.62 277.38 356.94 274.36 352.77 271.78 346.39 274.75 350.62 277.38"/><polygon class="cls-23" points="304.04 299.69 309.51 297.06 304.77 294.13 299.25 296.7 304.04 299.69"/><polygon class="cls-23" points="365.75 271.7 359.64 274.65 365.28 278.17 371.31 275.15 365.75 271.7"/><polygon class="cls-23" points="354.07 271.17 358.2 273.75 364.32 270.82 360.24 268.3 354.07 271.17"/><polygon class="cls-23" points="336.71 284.04 342.19 281.42 337.84 278.73 332.32 281.3 336.71 284.04"/><polygon class="cls-23" points="310.72 296.48 317.8 293.1 313.16 290.23 306.02 293.55 310.72 296.48"/><polygon class="cls-23" points="328.87 287.8 335.45 284.64 331.02 281.9 324.38 285 328.87 287.8"/><polygon class="cls-23" points="343.44 280.82 349.36 277.98 345.1 275.36 339.13 278.13 343.44 280.82"/><polygon class="cls-23" points="311.09 298.04 305.62 300.67 312.23 304.8 317.63 302.08 311.09 298.04"/><polygon class="cls-23" points="304.42 301.25 297.46 304.6 304.21 308.81 311.09 305.37 304.42 301.25"/><polygon class="cls-23" points="288.28 316.81 296.05 312.92 289.1 308.63 281.24 312.42 288.28 316.81"/><polygon class="cls-23" points="350.82 278.89 344.91 281.74 350.82 285.43 356.66 282.5 350.82 278.89"/><polygon class="cls-23" points="343.67 282.34 338.2 284.97 344.23 288.73 349.63 286.02 343.67 282.34"/><polygon class="cls-23" points="336.96 285.57 330.38 288.74 336.55 292.59 343.04 289.33 336.96 285.57"/><polygon class="cls-23" points="319.35 294.05 312.28 297.46 318.77 301.51 325.75 298.01 319.35 294.05"/><polygon class="cls-23" points="329.13 289.34 320.55 293.48 326.89 297.44 335.36 293.19 329.13 289.34"/><polygon class="cls-23" points="373.6 276.56 367.52 279.57 372.59 282.73 378.56 279.62 373.6 276.56"/><polygon class="cls-23" points="358.85 283.85 352.96 286.77 358.38 290.15 364.16 287.14 358.85 283.85"/><polygon class="cls-23" points="372.5 274.55 378.87 271.35 372.99 268.21 366.98 271.11 372.5 274.55"/><polygon class="cls-23" points="270.57 317.55 262.57 321.41 269.96 326.01 277.85 322.05 270.57 317.55"/><polygon class="cls-23" points="351.78 287.35 346.33 290.04 351.91 293.53 357.26 290.73 351.78 287.35"/><polygon class="cls-23" points="365.57 270.22 371.57 267.35 366.79 265.25 361.53 267.7 365.57 270.22"/><polygon class="cls-23" points="270.15 315.91 278.32 312 273.2 308.83 264.97 312.67 270.15 315.91"/><polygon class="cls-23" points="279.59 311.39 287.47 307.62 282.46 304.52 274.51 308.22 279.59 311.39"/><polygon class="cls-23" points="287.09 317.41 279.98 313.02 271.83 316.95 279.04 321.45 287.09 317.41"/><polygon class="cls-23" points="295.86 303.6 302.83 300.27 298 297.28 290.98 300.56 295.86 303.6"/><polygon class="cls-23" points="288.74 307.01 294.65 304.18 289.72 301.14 283.77 303.91 288.74 307.01"/><polygon class="cls-23" points="295.8 322.8 288.81 318.48 280.7 322.49 287.85 326.95 295.8 322.8"/><polygon class="cls-23" points="345.14 290.63 338.59 293.87 344.36 297.47 350.78 294.12 345.14 290.63"/><polygon class="cls-23" points="337.41 294.45 299.02 313.43 305.73 317.62 343.23 298.05 337.41 294.45"/><polygon class="cls-23" points="297.83 314.02 290 317.89 296.93 322.21 304.6 318.21 297.83 314.02"/><polygon class="cls-4" points="313.98 246.53 300.22 239.78 258.91 257.84 270.14 267.5 313.98 246.53"/><polygon class="cls-9" points="313.98 246.53 270.14 267.5 258.91 257.84 258.96 260.57 270.42 269.43 314.99 248.69 313.98 246.53"/><path class="cls-24" d="M237,253.59c1.7-3.51-3.65-5.31-2.39-8.81.85-2.33,5.89-6,8.12-7.12,2.53-1.24,5.28-1.79,7.86-2.87,3.42-1.44,6.83-3.17,10.46-4,6.63-1.57,12.85.74,19.07,2.62l.11,0-13.76-6.75-41.31,18.06,11.24,9.66.6-.29A.5.5,0,0,1,237,253.59Z" transform="translate(33.73 13.19)"/><polygon class="cls-4" points="473.39 221.35 467.74 210.66 417.18 213.29 414.61 224.08 473.39 221.35"/><polygon class="cls-9" points="473.39 221.35 414.61 224.08 414.65 226.44 473.43 223.4 473.39 221.35"/><path class="cls-24" d="M387.82,203.08c3.91-1.1,8.06-.54,12-1.47,2.85-.67,5.6-1.78,8.48-2.31,2.58-.48,5.34-.2,7.86-.91l-32.71,1.7-2.57,10.79H381C382.09,207.35,384.07,204.13,387.82,203.08Z" transform="translate(33.73 13.19)"/><polygon class="cls-7" points="178.93 120.24 352.6 87.33 529.92 84.33 536.36 86.25 352.64 90.05 184.63 127.64 178.93 120.24"/><polygon class="cls-4" points="184.34 324.93 140.84 366.28 120.75 357.44 160.89 321.94 184.34 324.93"/><polygon class="cls-9" points="184.34 324.93 140.84 366.28 120.75 357.44 120.81 360.77 141.26 371.38 184.39 328.04 184.34 324.93"/><path class="cls-24" d="M106.81,352.69c3.36-3.27.71-9.62-.61-13.42-.68-2-2.06-4.7-1.23-6.84,1.09-2.82,3.94-5,6.17-6.9A63,63,0,0,1,123,317.44c6.09-3.11,12.58-4.45,19.19-6l2-.49-17.06-2.17L87,344.25l19.67,8.64A.39.39,0,0,1,106.81,352.69Z" transform="translate(33.73 13.19)"/><polygon class="cls-4" points="149 279.59 157.91 333.81 141.04 355.1 123.55 292.17 149 279.59"/><polygon class="cls-4" points="294.13 211.05 294.67 245.72 272.81 257.98 269.93 216.81 294.13 211.05"/><polygon class="cls-4" points="451.79 188.09 451.79 215.75 433.36 215.75 432.18 189.12 451.79 188.09"/><polygon class="cls-4" points="536.36 86.25 523.41 190.57 352.64 201.07 352.64 90.05 536.36 86.25"/><polygon class="cls-11" points="530.07 93.08 517.48 185.47 358.93 196.71 358.94 96.25 530.07 93.08"/><polygon class="cls-4" points="352.64 90.05 352.64 201.07 196.01 269.74 184.12 121.22 352.64 90.05"/><polygon class="cls-4" points="196.01 269.74 60.01 382.85 28.46 210.04 184.12 121.22 196.01 269.74"/><polygon class="cls-6" points="60.01 382.85 51.58 381.26 15.26 215.08 28.46 210.04 60.01 382.85"/><polygon class="cls-7" points="15.26 215.08 178.93 120.24 184.12 121.22 28.46 210.04 15.26 215.08"/><g class="cls-25"><polygon class="cls-26" points="523.84 187.1 456.46 120.39 434.23 120.4 356.2 196.71 523.84 187.1"/><polygon class="cls-27" points="456.46 120.39 545.69 200.98 533.1 209.4 451.73 120.4 456.46 120.39"/><polygon class="cls-27" points="434.23 120.4 338.48 228.63 329.25 220.84 430.39 120.4 434.23 120.4"/><path class="cls-28" d="M355.25,80.09c0,27.93,24.57,50.56,54.87,50.55S465,108,465,80.05,440.42,29.49,410.12,29.5,355.25,52.17,355.25,80.09Z" transform="translate(33.73 13.19)"/><path class="cls-27" d="M370.73,81.27c0,20.06,17.63,36.31,39.39,36.3s39.39-16.28,39.39-36.33S431.88,44.94,410.12,45,370.73,61.22,370.73,81.27Z" transform="translate(33.73 13.19)"/><path class="cls-11" d="M377.38,79.93c0,16.67,14.66,30.17,32.74,30.16s32.73-13.52,32.73-30.19S428.2,49.74,410.12,49.75,377.38,63.27,377.38,79.93Z" transform="translate(33.73 13.19)"/><path class="cls-23" d="M319.1,68.88c0,45.24,40.75,81.9,91,81.88s91-36.72,91-82-40.75-81.89-91-81.87S319.1,23.65,319.1,68.88Zm9.64.32c0-40,36-72.43,80.45-72.45s80.46,32.39,80.46,72.38-36,72.42-80.46,72.44S328.73,109.18,328.74,69.2Z" transform="translate(33.73 13.19)"/><polygon class="cls-7" points="515.91 98.75 504.58 183.44 498.71 183.44 511.51 98.75 515.91 98.75"/><polygon class="cls-7" points="505.82 109.47 497.99 158.65 492.36 158.99 501.6 109.72 505.82 109.47"/><polygon class="cls-7" points="383.41 157.69 381.74 114.67 377.49 114.67 379.57 157.69 383.41 157.69"/><polygon class="cls-7" points="374.34 183.5 370.89 114.67 366.17 114.67 369.7 183.5 374.34 183.5"/><path class="cls-7" d="M438.71,194.41c2.59-5.7-1.91-17.51-6.56-21.9-5.28-5-16.62-2.57-14-12.37,1.84-6.92,6.81-13.87-.56-20.5-5.57-5-18.24-7.61-23.57-1-4,5-4.14,20.44,4.19,27.57-3.93,4.9-11.59,7.3-14.48,13.33-2.76,5.76-3.28,12.5-2.8,18.84,10.37-4.42,26.6-.45,37.74-.47,3.82,0,9.13.89,12.8,0,2.86-.7,4.89-2.63,7.61-4-1.53-.18-.9-1-1.48-1.48" transform="translate(33.73 13.19)"/></g><path class="cls-29" d="M334.67,164.23a37.54,37.54,0,0,1,13.66-4.41c14-1.93,28.74.33,41.92-5.79,12.38-5.73,19-16.76,26.56-27.37A78.54,78.54,0,0,1,432.22,110a119.39,119.39,0,0,1,20.86-12.74c12.55-6.19,25.75-11,38.28-17.26l5-.09-12.59,92.4L325.2,183.51V174C327.63,170.13,330.56,166.59,334.67,164.23Z" transform="translate(33.73 13.19)"/><polygon class="cls-30" points="467.27 100.28 467.93 123.16 518.93 123.16 520.88 100.28 467.27 100.28"/><polygon class="cls-30" points="364.93 168.46 364.93 189.12 410.27 188.51 410.27 167.66 364.93 168.46"/><polygon class="cls-11" points="345.28 100.28 346.92 196.91 204.86 255.09 193.65 130.5 345.28 100.28"/><polygon class="cls-31" points="205.97 138.91 337.2 109.38 339.31 190.52 215.31 240.71 205.97 138.91"/><g class="cls-32"><polygon class="cls-27" points="259.57 157.69 272.28 153.89 270.07 128.42 257.14 131.27 259.57 157.69"/><polygon class="cls-23" points="259.78 160.07 261.18 175.29 273.81 171.42 272.5 156.41 259.78 160.07"/><polygon class="cls-27" points="245.69 161.84 257.54 158.3 254.93 131.75 243.17 134.34 245.69 161.84"/><polygon class="cls-27" points="227.87 137.7 230.51 166.38 243.67 162.44 240.96 134.82 227.87 137.7 227.87 137.7"/><polygon class="cls-23" points="230.06 186.93 216.16 190.98 217.79 206.28 231.6 202.12 230.06 186.93"/><polygon class="cls-27" points="245.9 164.07 247.32 179.53 259.27 175.87 257.77 160.65 245.9 164.07"/><polygon class="cls-27" points="279.83 209.82 334.42 188.16 332.46 114.71 272.81 127.82 279.83 209.82"/><polygon class="cls-9" points="260.96 193.08 259.52 178.42 247.53 181.89 248.9 196.77 260.96 193.08"/><polygon class="cls-27" points="274.05 174.21 261.42 177.87 262.76 192.53 275.31 188.69 274.05 174.21"/><polygon class="cls-27" points="228.48 166.99 225.65 138.19 210.86 141.44 214.25 170.79 228.48 166.99"/><polygon class="cls-27" points="275.75 193.78 263.25 197.87 264.9 215.75 277.23 210.85 275.75 193.78"/><polygon class="cls-27" points="232.51 207.93 218.46 212.53 220.68 233.3 234.47 227.82 232.51 207.93"/><polygon class="cls-27" points="261.49 198.45 249.41 202.4 251.14 221.21 263.26 216.4 261.49 198.45"/><polygon class="cls-23" points="245.41 180.11 243.89 164.65 230.7 168.44 232.34 183.91 245.41 180.11"/><polygon class="cls-27" points="249.52 221.85 247.66 202.97 234.27 207.36 236.09 227.18 249.52 221.85"/><polygon class="cls-6" points="215.96 189.12 230.23 184.75 228.68 169.02 214.25 173.17 215.96 189.12"/><polygon class="cls-27" points="245.64 182.44 232.34 186.29 233.72 201.41 247.11 197.31 245.64 182.44"/></g><polygon class="cls-33" points="214.54 138.75 216.16 154.74 277.25 140.07 275.92 124.73 214.54 138.75"/><path class="cls-31" d="M290,140.81c-4.7-6.76-3.63-4.49-6.41-6a13.88,13.88,0,0,0-3.89-1.46l-.34-2.82a6.41,6.41,0,0,0,1.13-2.25c.58-2.75-.26-7.19-3.57-7-5.88.24-8.55,9.42-6.52,13a18.46,18.46,0,0,0-3.42,1.94c-.86.66-1.38,2.73-1.6,5.7h0a16.49,16.49,0,0,1-5.07,9.21c-2.14,2-9-1.55-9-1.55s-1.93-2.86-4.05-2.37-.23,5.24,0,5.68,10.13,6.39,17.08,4.41a6.08,6.08,0,0,0,2.51-1.3c.26,1.5-2.23,21.42-2.23,21.42l22.9-7.29-1.23-3.29a21.9,21.9,0,0,1,5-4.69c2.78-1.77,4.7-5.73,5.13-7.3S294.72,147.56,290,140.81Zm-5.77,18.43c-.14.22-.31.45-.48.68l-.59-1.56a19.26,19.26,0,0,1-.86-5.51c.2-2,1.29-7.27,1.29-7.27l6.41,7.49S285.53,157.26,284.25,159.24Z" transform="translate(33.73 13.19)"/><polygon class="cls-11" points="292.29 182.92 324.45 172.25 324.54 175.66 292.29 186.52 292.29 182.92"/><polygon class="cls-11" points="294.67 187.59 324.45 177.18 324.54 180.59 294.67 190.65 294.67 187.59"/><polyline class="cls-23" points="278.93 154.74 277.23 131.32 290.27 128.42"/><line class="cls-23" x1="286.44" y1="202.97" x2="330.21" y2="186.52"/><path class="cls-23" d="M186,172.78a13.47,13.47,0,0,1-1.46-3.37,9.44,9.44,0,0,1-.67-4.11c1,.47,1.42,2.43,2.1,3.43-.15-1.42-2.05-5.15-.8-6.27,1.14,1.25,1.34,3.08,1.84,4.6.09-1.51-1.52-4.47-.33-5.63a16.7,16.7,0,0,1,2,4.8c.13-1.49-1.71-4.53-.18-5.6,1.47,2.4,1.34,5.15,2.38,7.46.62-.6,1.17-3.48,2.13-1.64.59,1.12-.33,3.59-.34,4.83" transform="translate(33.73 13.19)"/><path class="cls-23" d="M222.85,172.9c2.13,2.12,2.93,4.78,1.79,5.93s-3.81.35-5.94-1.77-2.93-4.78-1.79-5.93S220.71,170.77,222.85,172.9Z" transform="translate(33.73 13.19)"/><path class="cls-29" d="M312.3,133.1a49.36,49.36,0,0,1-18.15,13c-4.19,1.79-8.71,2.77-12.7,5A47.41,47.41,0,0,0,271.2,159c-5.45,5.41-10.24,11.67-16.59,16.09a38.84,38.84,0,0,1-31.45,5.51,39.84,39.84,0,0,1-24.52-17.74c-5.49-8.65-9.7-18.06-15.26-26.69-5.3-8.22-12.15-16.86-22.31-18.78a.41.41,0,0,1-.36-.42l-.79.16,11.21,124.59,142.06-58.19-.86-50.47Z" transform="translate(33.73 13.19)"/><polygon class="cls-11" points="190.12 258.82 178.25 138.19 47.26 215.08 70.91 353.25 190.12 258.82"/><polygon class="cls-27" points="141.2 172 116.89 186.26 121.84 218.42 145.56 203.45 141.2 172"/><polygon class="cls-34" points="130.29 291.15 125.96 264.09 101.12 281.13 105.5 309.57 130.29 291.15"/><polygon class="cls-27" points="119.98 226.7 95.21 242.74 100.06 274.27 124.93 257.62 119.98 226.7"/><polygon class="cls-27" points="151.53 246.55 128.6 262.28 132.76 289.31 155.16 272.68 151.53 246.55"/><polygon class="cls-34" points="94.16 235.9 118.95 220.24 113.8 188.07 89.03 202.62 94.16 235.9"/><polygon class="cls-31" points="70.86 293.84 97.39 276.06 92.36 244.58 65.42 262.02 70.86 293.84"/><polygon class="cls-27" points="122.83 224.85 127.6 255.82 150.68 240.37 146.41 209.59 122.83 224.85"/><polygon class="cls-27" points="172.74 192.54 148.95 207.94 153.06 238.77 175.87 223.49 172.74 192.54"/><polygon class="cls-27" points="98.49 282.93 72.09 301.04 77.16 330.63 103.05 311.39 98.49 282.93"/><polygon class="cls-34" points="153.89 244.94 157.37 271.03 179.05 254.92 176.47 229.44 153.89 244.94"/><polygon class="cls-31" points="148.14 201.82 172.15 186.66 169.01 155.67 143.94 170.38 148.14 201.82"/><polygon class="cls-27" points="91.26 237.72 85.94 204.43 58.33 220.64 64.18 254.82 91.26 237.72"/><path class="cls-7" d="M38.7,221.92c1.18,1.89.23,4.47,0,6.67-.19,1.87-.84,4.15-.5,6,.18,1,.45,1.46.82,1.62l14.47-9.13A14,14,0,0,0,49,221.84c-2.84-2.09-2.26-4-2.25-7.5a8.67,8.67,0,0,0-4-7.75c-2-1.25-5.57-.1-6.85,1.57-2.11,2.76-1.82,8-.68,10.94C35.8,220.67,37.83,220.53,38.7,221.92Z" transform="translate(33.73 13.19)"/><path class="cls-7" d="M35,213.17c-6.58,2.08-3.25,10.09,2.2,7.17Z" transform="translate(33.73 13.19)"/><path class="cls-7" d="M32.7,216.09c-1.62-4.69,0-9.73,4.45-12.06,3.83-2,8.54-.67,9.84,4.13-.27.1-.88,0-1.12,0-2.41-3.63-5.7-5-9.36-2.51-3.92,2.65-3.95,6.21-3.15,10.4a6.17,6.17,0,0,1-.86,0,3.15,3.15,0,0,1-.3-1.71" transform="translate(33.73 13.19)"/><path class="cls-7" d="M44.87,209.09c.45,2.43.7,4.61,1.25,7,6.87.9,1.63-12.76-2.23-8.25Z" transform="translate(33.73 13.19)"/><path class="cls-7" d="M125,209.9c1,1.57.19,3.72,0,5.56-.16,1.56-.7,3.46-.42,5,.15.82.38,1.21.69,1.35l12.08-7.62a11.6,11.6,0,0,0-3.79-4.37c-2.38-1.75-1.89-3.33-1.88-6.27a7.22,7.22,0,0,0-3.33-6.47c-1.68-1-4.64-.09-5.71,1.31-1.77,2.31-1.53,6.68-.57,9.14C122.58,208.84,124.28,208.73,125,209.9Z" transform="translate(33.73 13.19)"/><path class="cls-7" d="M121.88,202.59c-5.5,1.73-2.72,8.42,1.84,6Z" transform="translate(33.73 13.19)"/><path class="cls-7" d="M120,205A8.08,8.08,0,0,1,123.71,195c3.2-1.67,7.13-.56,8.22,3.45-.22.09-.73,0-.93,0-2-3-4.76-4.17-7.82-2.1-3.27,2.22-3.29,5.19-2.63,8.69a5.77,5.77,0,0,1-.72,0,2.7,2.7,0,0,1-.25-1.43" transform="translate(33.73 13.19)"/><path class="cls-7" d="M130.16,199.18c.37,2,.58,3.84,1,5.84,5.74.75,1.37-10.65-1.86-6.88Z" transform="translate(33.73 13.19)"/><g class="cls-35"><path class="cls-11" d="M72.64,242.7c1.18,1.89.22,4.47,0,6.67-.19,1.87-.84,4.15-.5,6,.18,1,.44,1.45.82,1.62l14.46-9.13a13.89,13.89,0,0,0-4.53-5.24c-2.85-2.09-2.26-4-2.25-7.5a8.65,8.65,0,0,0-4-7.75c-2-1.25-5.56-.11-6.84,1.57-2.11,2.76-1.83,8-.68,10.94C69.73,241.44,71.77,241.31,72.64,242.7Z" transform="translate(33.73 13.19)"/><path class="cls-11" d="M68.89,234c-6.58,2.08-3.25,10.08,2.2,7.17Z" transform="translate(33.73 13.19)"/><path class="cls-11" d="M66.64,236.87c-1.62-4.69,0-9.73,4.44-12.06,3.84-2,8.54-.67,9.84,4.13-.26.1-.87-.06-1.11,0-2.41-3.63-5.7-5-9.37-2.51-3.91,2.65-3.94,6.2-3.14,10.4a6.32,6.32,0,0,1-.87,0,3.24,3.24,0,0,1-.29-1.71" transform="translate(33.73 13.19)"/><path class="cls-11" d="M78.81,229.87c.44,2.43.7,4.61,1.25,7,6.86.9,1.63-12.76-2.23-8.25Z" transform="translate(33.73 13.19)"/></g><g class="cls-35"><path class="cls-11" d="M51.92,298.44c1.08,1.72.2,4.08,0,6.09-.17,1.71-.77,3.79-.46,5.48.17.9.41,1.33.75,1.48l13.22-8.34a12.61,12.61,0,0,0-4.14-4.79c-2.6-1.91-2.07-3.64-2.06-6.86a7.91,7.91,0,0,0-3.64-7.08c-1.84-1.14-5.09-.1-6.26,1.44-1.93,2.52-1.67,7.31-.62,10C49.26,297.29,51.12,297.16,51.92,298.44Z" transform="translate(33.73 13.19)"/><path class="cls-11" d="M48.49,290.44c-6,1.9-3,9.21,2,6.54Z" transform="translate(33.73 13.19)"/><path class="cls-11" d="M46.44,293.1a8.82,8.82,0,0,1,4.06-11c3.5-1.83,7.8-.62,9,3.78-.24.09-.8-.06-1,0-2.2-3.32-5.2-4.57-8.56-2.3-3.58,2.42-3.6,5.67-2.87,9.51h-.79A2.93,2.93,0,0,1,46,291.5" transform="translate(33.73 13.19)"/><path class="cls-11" d="M57.56,286.71c.41,2.22.64,4.2,1.14,6.39,6.27.82,1.49-11.66-2-7.54Z" transform="translate(33.73 13.19)"/></g><g class="cls-35"><path class="cls-11" d="M99.33,225c1.18,1.88.22,4.46,0,6.66-.19,1.87-.84,4.15-.5,6,.18,1,.44,1.46.82,1.62l14.46-9.13a13.89,13.89,0,0,0-4.53-5.24c-2.85-2.09-2.26-4-2.25-7.5a8.66,8.66,0,0,0-4-7.75c-2-1.25-5.56-.1-6.85,1.57-2.11,2.76-1.82,8-.68,10.94C96.42,223.7,98.46,223.56,99.33,225Z" transform="translate(33.73 13.19)"/><path class="cls-11" d="M95.58,216.21c-6.59,2.07-3.25,10.08,2.2,7.16Z" transform="translate(33.73 13.19)"/><path class="cls-11" d="M93.33,219.12c-1.62-4.69,0-9.73,4.44-12.06,3.84-2,8.54-.67,9.84,4.13-.26.1-.87-.05-1.12,0-2.4-3.63-5.69-5-9.36-2.51-3.91,2.65-3.94,6.21-3.15,10.4a6.17,6.17,0,0,1-.86,0,3.14,3.14,0,0,1-.29-1.71" transform="translate(33.73 13.19)"/><path class="cls-11" d="M105.49,212.12c.45,2.43.7,4.61,1.25,7,6.87.9,1.64-12.76-2.22-8.25Z" transform="translate(33.73 13.19)"/></g><g class="cls-35"><path class="cls-11" d="M107.24,259.35c.91,1.45.17,3.44,0,5.13-.15,1.44-.65,3.2-.39,4.62.14.76.34,1.12.63,1.25l11.15-7a10.69,10.69,0,0,0-3.5-4c-2.19-1.61-1.74-3.07-1.73-5.78a6.66,6.66,0,0,0-3.07-6c-1.55-1-4.29-.08-5.28,1.21-1.62,2.13-1.4,6.17-.52,8.43C105,258.37,106.56,258.27,107.24,259.35Z" transform="translate(33.73 13.19)"/><path class="cls-11" d="M104.35,252.6c-5.07,1.61-2.51,7.77,1.69,5.52Z" transform="translate(33.73 13.19)"/><path class="cls-11" d="M102.61,254.85a7.44,7.44,0,0,1,3.43-9.29c2.95-1.55,6.58-.52,7.58,3.18-.2.08-.67,0-.86,0-1.86-2.8-4.39-3.85-7.21-1.94-3,2-3,4.79-2.43,8a5,5,0,0,1-.67,0,2.48,2.48,0,0,1-.22-1.32" transform="translate(33.73 13.19)"/><path class="cls-11" d="M112,249.46c.34,1.87.54,3.55,1,5.39,5.29.69,1.26-9.83-1.71-6.35Z" transform="translate(33.73 13.19)"/></g><path class="cls-7" d="M64,201.75a7.29,7.29,0,0,1-.65-3.6c.26-3.73,3.18-6.56,6.52-6.33a6.13,6.13,0,0,1,5.31,4.63l1-.48a7.33,7.33,0,0,0-6.26-5.07c-4-.28-7.58,3.16-7.9,7.68a9,9,0,0,0,.56,3.84Z" transform="translate(33.73 13.19)"/><path class="cls-7" d="M67.67,204.85a3.37,3.37,0,1,1-3.35-3.75A3.57,3.57,0,0,1,67.67,204.85Z" transform="translate(33.73 13.19)"/><path class="cls-7" d="M79.55,199a3.37,3.37,0,1,1-3.35-3.75A3.57,3.57,0,0,1,79.55,199Z" transform="translate(33.73 13.19)"/><path class="cls-7" d="M93.91,185.42a7.4,7.4,0,0,1-.65-3.6c.26-3.73,3.18-6.56,6.52-6.33a6.1,6.1,0,0,1,5.31,4.63l1-.48a7.33,7.33,0,0,0-6.26-5.07c-4-.28-7.58,3.15-7.9,7.68a9,9,0,0,0,.56,3.83Z" transform="translate(33.73 13.19)"/><path class="cls-7" d="M97.57,188.52a3.37,3.37,0,1,1-3.35-3.76A3.57,3.57,0,0,1,97.57,188.52Z" transform="translate(33.73 13.19)"/><path class="cls-7" d="M109.45,182.71A3.37,3.37,0,1,1,106.1,179,3.57,3.57,0,0,1,109.45,182.71Z" transform="translate(33.73 13.19)"/><path class="cls-7" d="M129.05,240.65a6.63,6.63,0,0,1-.59-3.25c.24-3.37,2.87-5.93,5.89-5.72a5.51,5.51,0,0,1,4.8,4.18l.91-.43a6.62,6.62,0,0,0-5.65-4.58c-3.66-.26-6.85,2.85-7.14,6.94a7.92,7.92,0,0,0,.51,3.46Z" transform="translate(33.73 13.19)"/><path class="cls-7" d="M132.35,243.45a3,3,0,1,1-3-3.39A3.22,3.22,0,0,1,132.35,243.45Z" transform="translate(33.73 13.19)"/><path class="cls-7" d="M143.09,238.2a3,3,0,1,1-3-3.39A3.23,3.23,0,0,1,143.09,238.2Z" transform="translate(33.73 13.19)"/><path class="cls-9" d="M43.21,258.24a7.4,7.4,0,0,1-.65-3.6c.26-3.73,3.18-6.56,6.52-6.33a6.12,6.12,0,0,1,5.31,4.63l1-.48a7.33,7.33,0,0,0-6.26-5.07c-4-.28-7.58,3.16-7.9,7.68a9,9,0,0,0,.56,3.84Z" transform="translate(33.73 13.19)"/><path class="cls-9" d="M46.87,261.34a3.37,3.37,0,1,1-3.35-3.75A3.57,3.57,0,0,1,46.87,261.34Z" transform="translate(33.73 13.19)"/><path class="cls-9" d="M58.75,255.53a3.37,3.37,0,1,1-3.35-3.75A3.57,3.57,0,0,1,58.75,255.53Z" transform="translate(33.73 13.19)"/><path class="cls-9" d="M119.46,170.43a7.18,7.18,0,0,1-.65-3.6c.26-3.73,3.18-6.57,6.52-6.33a6.11,6.11,0,0,1,5.3,4.62l1-.48a7.33,7.33,0,0,0-6.26-5.06c-4-.28-7.59,3.15-7.9,7.67a8.86,8.86,0,0,0,.56,3.84Z" transform="translate(33.73 13.19)"/><path class="cls-9" d="M123.12,173.52a3.37,3.37,0,1,1-3.35-3.75A3.57,3.57,0,0,1,123.12,173.52Z" transform="translate(33.73 13.19)"/><path class="cls-9" d="M135,167.72a3.37,3.37,0,1,1-3.35-3.76A3.57,3.57,0,0,1,135,167.72Z" transform="translate(33.73 13.19)"/><path class="cls-9" d="M76.91,275.64a7.39,7.39,0,0,1-.65-3.59c.26-3.73,3.18-6.57,6.52-6.34a6.12,6.12,0,0,1,5.31,4.63l1-.48a7.3,7.3,0,0,0-6.25-5.06c-4-.29-7.59,3.15-7.91,7.67a9,9,0,0,0,.57,3.84Z" transform="translate(33.73 13.19)"/><path class="cls-9" d="M80.57,278.74A3.37,3.37,0,1,1,77.22,275,3.57,3.57,0,0,1,80.57,278.74Z" transform="translate(33.73 13.19)"/><path class="cls-9" d="M92.45,272.93a3.37,3.37,0,1,1-3.35-3.75A3.57,3.57,0,0,1,92.45,272.93Z" transform="translate(33.73 13.19)"/><path class="cls-29" d="M142.94,214.61c-7.79,2.23-13.51,7.81-19.58,12.87-4.56,3.81-9.29,7.6-14.68,10.19a46.93,46.93,0,0,1-17.54,4.41,74.85,74.85,0,0,1-37.36-7.54,56.58,56.58,0,0,1-14-9.37c-3.76-3.55-7.1-7.5-10.59-11.31-4.55-5-9.56-9.72-15.52-12.07l-.16.09L37.18,340.06l119.21-94.43-3.07-31.19A19.16,19.16,0,0,0,142.94,214.61Z" transform="translate(33.73 13.19)"/><path class="cls-4" d="M493,462c13.07,4.3,61.83,28.09,73.79,42.49,6.84,8.23,10.22,14.15.94,13.38-4-.32-10.42-6.57-14.23-8.5-11.35-5.73-23.7-13.41-34.88-18.81-16.54-8-36.53,2.91-33.81-14.57Z" transform="translate(33.73 13.19)"/><path class="cls-4" d="M547.4,522.64a12.15,12.15,0,1,0,13.26-10.83A12.07,12.07,0,0,0,547.4,522.64Z" transform="translate(33.73 13.19)"/><path class="cls-6" d="M558.89,516.47a8,8,0,0,1,6.51,4.68,8,8,0,0,0-12.88,5.39,7.77,7.77,0,0,0,.64,3.93,7.85,7.85,0,0,1-2.95-6.91A7.94,7.94,0,0,1,558.89,516.47Z" transform="translate(33.73 13.19)"/><path class="cls-4" d="M477.81,460.58c-13.76-.7-67.9,3.87-84.32,13-9.38,5.21-14.7,9.5-5.78,12.13,3.83,1.14,12.11-2.37,16.38-2.79,12.66-1.24,27-3.93,39.38-4.93,18.33-1.48,33,15.88,36.84-1.39Z" transform="translate(33.73 13.19)"/><path class="cls-4" d="M377.79,492a12.16,12.16,0,1,0,13.27-10.84A12.08,12.08,0,0,0,377.79,492Z" transform="translate(33.73 13.19)"/><path class="cls-6" d="M389.28,485.82a7.91,7.91,0,0,1,6.51,4.68,8,8,0,0,0-12.87,5.38,7.73,7.73,0,0,0,.63,3.93,7.84,7.84,0,0,1-2.94-6.91A7.92,7.92,0,0,1,389.28,485.82Z" transform="translate(33.73 13.19)"/><path class="cls-4" d="M487,541.07a12.15,12.15,0,1,0,13.27-10.84A12.08,12.08,0,0,0,487,541.07Z" transform="translate(33.73 13.19)"/><path class="cls-6" d="M498.44,534.9a7.93,7.93,0,0,1,6.51,4.68A8,8,0,0,0,492.07,545a7.82,7.82,0,0,0,.64,3.92,7.83,7.83,0,0,1-2.94-6.9A7.92,7.92,0,0,1,498.44,534.9Z" transform="translate(33.73 13.19)"/><path class="cls-4" d="M427.24,532.26a12.16,12.16,0,1,0,13.27-10.84A12.08,12.08,0,0,0,427.24,532.26Z" transform="translate(33.73 13.19)"/><path class="cls-6" d="M438.73,526.09a7.91,7.91,0,0,1,6.51,4.68,8,8,0,0,0-12.87,5.39,7.71,7.71,0,0,0,.63,3.92,7.87,7.87,0,0,1,5.73-14Z" transform="translate(33.73 13.19)"/><path class="cls-4" d="M492.88,470.81s3.93,9,9.13,33.8,4.56,32.14,4.56,32.14l-10.26,2.13s-1.06-5.8-7.85-22.66-14.91-28.79-13-35.17S492.88,470.81,492.88,470.81Z" transform="translate(33.73 13.19)"/><path class="cls-4" d="M462.05,466.2s-5.59,8.08-15.48,31.43-10.69,30.69-10.69,30.69l9.67,4s2.15-5.49,12.08-20.74,20.19-25.43,19.51-32.07S462.05,466.2,462.05,466.2Z" transform="translate(33.73 13.19)"/><path class="cls-4" d="M511.58,317.64c-5.53-3.36-12.09-5.77-18.57-7.82-7-2.22-14.21-4.07-21.45-5.64-6.39-1.39-12.79-2.43-19.15-3.92-3.73-.88-7.46-1.76-11.22-2.5a67.65,67.65,0,0,0-9.73-1.54,40.41,40.41,0,0,0-4.41.1,13.52,13.52,0,0,1,5.95-8.46c4.89-2.74,19,.29,25.73,1.85,10.76,2.48,21.39,5.84,32,8.86,4.93,1.4,18.56,5.11,20.45,6.32,6,3.84,7.89,13,6.45,18.57A15.71,15.71,0,0,0,511.58,317.64Z" transform="translate(33.73 13.19)"/><path class="cls-4" d="M430.91,295.89c7,.29,14.63,2.43,21.51,4.05,6.38,1.49,12.8,2.53,19.2,3.93,7.25,1.58,14.48,3.41,21.52,5.66,7.63,2.43,22.6,7.57,24.47,14.12a1.46,1.46,0,0,1-.07.19c-3.13,7.69-10.93,8.91-22.2,5.55-12.13-3.62-24.6-8.32-36.55-12.34-8.77-2.95-25.23-7.08-30.35-13.56A9.21,9.21,0,0,1,427,296,36.05,36.05,0,0,1,430.91,295.89Z" transform="translate(33.73 13.19)"/><path class="cls-5" d="M433,287.86s29.78,4.16,35.52,7,4,4.83-2.24,3.45S441,291.87,437.79,292s2.42,4.69-.12,4.61S427,296,427,296a11.36,11.36,0,0,1,2-4.16A27.88,27.88,0,0,1,433,287.86Z" transform="translate(33.73 13.19)"/><path class="cls-4" d="M441.05,394.16c2.22-5.38,4.61-11.31,6.66-17.26,6.23-18.06,21.07-63.31,21.07-63.31l17.34,4S477,371.19,468,400C459.59,403.75,448.47,400.6,441.05,394.16Z" transform="translate(33.73 13.19)"/><path class="cls-6" d="M534.6,365.51s-3.24,1.44-21.93-2.1S475.87,344,452.77,335c-27-10.46-45.32-13.17-54.94-.3s-7.29,22.15-12.3,47.12-11.44,31.57-4,41,86.25,5.38,115.91,11.11,48.84,19.92,56.36,8.69-6.37-49.64-11.2-57.94S534.6,365.51,534.6,365.51Z" transform="translate(33.73 13.19)"/><path class="cls-7" d="M452.42,336.71a89.79,89.79,0,0,1,20.32,18.77c4.51,5.91,9,13.45,8.22,21.17-.83,8.63-8.1,14.07-15.69,17.11-17.41,7-36.19,4.62-54.14,1.33-8.88-1.62-18.28-3.77-27.61-4.36.67-2.69,1.35-5.64,2-8.91,5-25,2.69-34.26,12.3-47.12,8.72-11.67,24.62-10.53,47.6-2.42C447.83,333.67,450.17,335.15,452.42,336.71Z" transform="translate(33.73 13.19)"/><path class="cls-12" d="M433.38,335.12c-8.84,6.53-19,14.09-26.45,22.46,5.74,8.21,7.84,23,10.79,31.22" transform="translate(33.73 13.19)"/><path class="cls-12" d="M441.23,341.07c-2.55,1.83-21.07,17.29-21.07,17.29s7.42,17.8,8.39,26.41c-.23,1.14.11-1.66.08-1.06" transform="translate(33.73 13.19)"/><path class="cls-12" d="M457.93,342.67c-2.55,1.83-24.55,15.69-24.55,15.69s10.9,19.4,11.87,28c-.23,1.14.11-1.66.08-1.06" transform="translate(33.73 13.19)"/><path class="cls-5" d="M531.67,313c7.75-12.23,16-13.13,27.8-21.76s34.75-25.93,41.83-36.9,5.85-37.63,7.7-51,7.14-17.2,13.75-22,41.49-9.59,41.49-9.59-2.71,9.69-6.2,21.1a23.64,23.64,0,0,0,.2-3.77s-20.72-2.39-25.3,2c-5.08,4.84-7.78,22.32-3.34,27.73,2.92,3.56,17.81,5.09,17.81,5.09a31.65,31.65,0,0,1-2,4c-5.56,8.63-114.49,137.23-114.49,137.23s-1.59-7.14-5-17.21S523.93,325.24,531.67,313Z" transform="translate(33.73 13.19)"/><path class="cls-5" d="M657.79,193.69c-3.35,11-7.38,23.34-10.38,30.22,0-.06,9.85-29.27,10.38-30.22Z" transform="translate(33.73 13.19)"/><path class="cls-4" d="M529.53,312.81c7.75-12.22,16-13.13,27.8-21.75s34.75-25.93,41.83-36.9,5.86-37.64,7.7-51,7.14-17.19,13.75-22,41.49-9.58,41.49-9.58-.07.24-.19.68c-8.49,1.27-33.15,5.22-38.6,9.16-6.6,4.79-11.89,8.62-13.74,22s-.62,40-7.7,51S571.8,282.69,560,291.31s-20,9.54-27.79,21.76-9.15,24.84-5.76,34.92c2.14,6.38,3.57,11.58,4.32,14.53l-2,2.43s-1.59-7.14-5-17.22S521.79,325,529.53,312.81Z" transform="translate(33.73 13.19)"/><g class="cls-36"><path class="cls-5" d="M551.32,309c4.73-4.09,10.13-7.28,15.36-10.66l18.55-12a76.4,76.4,0,0,0,23.58-24c3-4.77,5.56-9.75,8.33-14.64a24.24,24.24,0,0,1,10.92-10.39c4.77-2.2,9.78-3.46,14.4-5.51-18.41,23.36-111.57,133.35-111.57,133.35s-.71-3.18-2.19-8.29C531.36,338.68,537,321.39,551.32,309Z" transform="translate(33.73 13.19)"/><path class="cls-37" d="M657.79,193.69c-3.35,11-7.38,23.34-10.38,30.22,0-.06,9.85-29.27,10.38-30.22Z" transform="translate(33.73 13.19)"/></g><path class="cls-6" d="M694.15,116.19c8.17-2.78,32.08,5.16,33.85,15.08s-10,55.24-26.1,77.14-30.89,48-39.24,60.72-7.71,23.1-24.52,44.24S600,359,574.34,373.87s-29.29,25.94-33.85,22.25-9.72-24.72-9.6-31,28.52-35.95,41.63-51,39.74-71.54,47.13-80,15.39-6.68,19.21-6.56,12.85-14.19,16.22-26.32,7.6-33.18,17.43-50S683.41,119.84,694.15,116.19Z" transform="translate(33.73 13.19)"/><path class="cls-7" d="M699.61,143.42c.29,12.72-3.77,25.43-8.68,37.05a167.79,167.79,0,0,1-10.47,20.79c-3.34,5.59-7.16,10.93-12.31,15.05-4.89,3.91-10.73,6.88-17.07,7.46a29.12,29.12,0,0,1-7.12-.24,70,70,0,0,0,11.12-22.31c3.37-12.14,7.6-33.18,17.43-50,7.56-12.91,10-24.55,15.53-30.9C698.05,120.74,699.44,136,699.61,143.42Z" transform="translate(33.73 13.19)"/><path class="cls-7" d="M616.94,292.06c-8.82,18.3-21.31,36.24-37,49.43a171.72,171.72,0,0,1-34,22.36,139.81,139.81,0,0,1-14.55,6.32,31.2,31.2,0,0,1-.48-5c.12-6.24,28.52-35.95,41.63-51,11.53-13.26,33.55-58.59,43.69-75.05C631.23,252.88,624.78,275.78,616.94,292.06Z" transform="translate(33.73 13.19)"/><path class="cls-12" d="M707.57,133.1C700.4,138.33,689.2,160.2,686,167a202.87,202.87,0,0,0-13.1,36.43" transform="translate(33.73 13.19)"/><path class="cls-12" d="M691.79,129.21c-7.17,5.23-12.91,21.2-16.15,28a203.64,203.64,0,0,0-13.1,36.43" transform="translate(33.73 13.19)"/><path class="cls-12" d="M674.13,218.75c-2.65-2.66-18-11.81-20.55-13.34" transform="translate(33.73 13.19)"/><path class="cls-12" d="M665.94,229.89c-4.7-2-13.61-10-17.83-12.55" transform="translate(33.73 13.19)"/><path class="cls-12" d="M658.94,250.37c-11.48-4.4-16.84-10.93-21.75-21.63" transform="translate(33.73 13.19)"/><path class="cls-12" d="M639.94,283.75c-9.94-1.58-18.58-5-27.59-7.61-1.23-9.25-2.39-16.11-2.71-23.47" transform="translate(33.73 13.19)"/><path class="cls-12" d="M627.27,305.94c-9.93-1.58-18.57-5-27.58-7.6-1.23-9.25-2.4-16.11-2.71-23.48" transform="translate(33.73 13.19)"/><path class="cls-5" d="M613.57,328l-25.85-6.81-6.15-19.64s-26.36,31.1-34.77,39-15.93,22.3-18,24.73,2.89,15.76,7.3,23.14S584.68,361,593,354.21,613.57,328,613.57,328Z" transform="translate(33.73 13.19)"/><g class="cls-38"><line class="cls-13" x1="636.81" y1="325.51" x2="638.02" y2="371.72"/><line class="cls-13" x1="629.89" y1="327.05" x2="631.1" y2="373.27"/><line class="cls-13" x1="624.36" y1="324.32" x2="624.12" y2="385.32"/><line class="cls-13" x1="616.35" y1="310.83" x2="617.32" y2="388.84"/><line class="cls-13" x1="607.14" y1="317.47" x2="608.1" y2="395.48"/><line class="cls-13" x1="599.68" y1="324.16" x2="600.64" y2="402.17"/><line class="cls-13" x1="590.71" y1="328.23" x2="591.68" y2="406.24"/><line class="cls-13" x1="581.68" y1="333.05" x2="582.64" y2="411.06"/><line class="cls-13" x1="573.06" y1="333.63" x2="574.02" y2="411.65"/><line class="cls-13" x1="564.16" y1="337.06" x2="565.12" y2="415.07"/><line class="cls-13" x1="617.49" y1="290.36" x2="568.21" y2="336.38"/><line class="cls-13" x1="620.34" y1="297.21" x2="571.07" y2="343.23"/><line class="cls-13" x1="626.8" y1="298.65" x2="562.93" y2="360.79"/><line class="cls-13" x1="646.14" y1="291.05" x2="563.65" y2="369.56"/><line class="cls-13" x1="645.13" y1="304.83" x2="562.63" y2="383.34"/><line class="cls-13" x1="642.94" y1="317.32" x2="560.45" y2="395.82"/><line class="cls-13" x1="644.46" y1="328.29" x2="561.97" y2="406.8"/><line class="cls-13" x1="645.25" y1="340.09" x2="562.76" y2="418.59"/><line class="cls-13" x1="650.22" y1="347.25" x2="567.73" y2="425.76"/><line class="cls-13" x1="652.37" y1="357.53" x2="569.89" y2="436.03"/></g><path class="cls-5" d="M716.3,178.37c-1.48,9.13-5.47,18.07-9.16,26.75s-6.42,17.76-10.25,26.68c-6.82,15.92-8.59,33.92-9.4,51.63-.93,20.53-7.31,37.59-18.86,54.66-5.46,8.07-25.34,40.12-30.46,47.75s-10.26,15.89-15.41,23.72c-13.94,21.16-45.92,55.23-72.18,34.53-3.57-2.82-6.23-6.34-9.47-9.45s-7.58-5.27-9.9-9.19c-5.56-9.41-.32-18.42,6.09-25.87,12.21-14.18,28.32-23.05,42.85-34.88,19.06-15.51,37.48-30.41,51.39-50.89,6-8.82,12-19.2,15.8-28.82,4-10.21,7.89-20.42,14.47-29.49,14.9-20.56,31.28-40.12,42.71-63.09,2.26-4.54,6.62-12.79,11.19-14.57" transform="translate(33.73 13.19)"/><path class="cls-4" d="M537.3,399.58a116,116,0,0,1,18.1-16.48c9.2,6.6,20.45,10.58,31.82,9.57,13.69-1.2,24.69-9.68,33.78-19.37,9.81-10.46,17.58-22.54,25.21-34.61,11.95-18.9,18.08-47.05,41.31-55.82h0l0,.56c-.93,20.53-7.31,37.59-18.86,54.66-5.46,8.07-25.34,40.12-30.46,47.75s-10.26,15.89-15.41,23.72c-13.94,21.16-45.92,55.23-72.18,34.53-3.57-2.82-6.23-6.34-9.47-9.45s-7.58-5.27-9.9-9.19C525.65,416,530.89,407,537.3,399.58Z" transform="translate(33.73 13.19)"/><path class="cls-17" d="M678.54,265.65c2.09,11.46,3,22.72-.91,33.93a157.69,157.69,0,0,1-15.72,32.24,324.77,324.77,0,0,1-21.19,29.39c-6.29,7.86-18,17.58-22.05,25.48" transform="translate(33.73 13.19)"/><path class="cls-4" d="M562,368.29c25.62-15,47-39.45,63.81-60.64s16.19-31.58,24.54-44.36S676,226,689.56,202.43c16.88-29.34,28.44-79.24,25.72-82.69,7,2.88,11.85,6.65,12.72,11.53,1.76,9.94-10.18,57.3-26.31,79.26s-30.9,48.09-39.25,60.87-7.71,23.16-24.53,44.35-38.2,45.7-63.82,60.65-36.79,35.68-41.35,32c-1.78-1.44-3.2-8.08-4.81-12.91C532.47,391.56,547,377,562,368.29Z" transform="translate(33.73 13.19)"/><path class="cls-9" d="M570.42,373.33c26.24-15.18,48.13-40,65.34-61.57s16.57-32.07,25.11-45.05,23.67-39.5,40.18-61.81c15.19-20.52,27-68.87,25-77.9.51,1.08,2.67,2.41,2.89,5.63.5,7.07-10,55.37-26.1,77.34S672,258.05,663.6,270.83s-7.72,23.16-24.53,44.36-38.2,45.68-63.82,60.64-36.79,35.68-41.35,32a7.43,7.43,0,0,1-1.65-2.85C538.53,400.51,550,385.14,570.42,373.33Z" transform="translate(33.73 13.19)"/><path class="cls-4" d="M544.2,418.08c-8.26-3-16.71-4.43-25.5-6.61-22.38-5.51-44.67-13.61-67.22-19-17.33-4.12-52.64-14.11-66.1,1.41-9.33,10.76-14.27,30.74,2.82,37.92,30.74,12.91,78.72,15.31,112.48,18.54,15,1.45,40.7,1.05,54.21-4.65Z" transform="translate(33.73 13.19)"/><path class="cls-9" d="M519,425.94c-24.11-5.68-48.15-13.95-72.44-19.48-17.3-3.94-51.23-13-67.55-2.06a36.36,36.36,0,0,1,3.53-4.87C396,384,431.28,394,448.61,398.12c22.55,5.36,44.84,13.46,67.21,19,8.8,2.17,17.25,3.62,25.5,6.61l3.27,8.43C536.27,429.49,527.78,428,519,425.94Z" transform="translate(33.73 13.19)"/><path class="cls-4" d="M540.61,393.68c-6.31-3.85-13.82-6.6-21.23-8.95-8-2.54-16.25-4.65-24.53-6.45-7.3-1.58-14.62-2.78-21.9-4.48-4.26-1-8.52-2-12.83-2.86A76.91,76.91,0,0,0,449,369.18a46.69,46.69,0,0,0-5,.11c1-4,3.54-7.87,6.79-9.68,5.6-3.12,21.75.35,29.44,2.12,12.29,2.85,24.45,6.68,36.55,10.14,5.63,1.6,21.23,5.85,23.38,7.22,6.87,4.4,9,14.85,7.38,21.24C546.3,397.91,543.81,395.63,540.61,393.68Z" transform="translate(33.73 13.19)"/><path class="cls-4" d="M448.37,368.8c8,.33,16.72,2.78,24.59,4.63,7.29,1.71,14.64,2.89,22,4.49,8.3,1.82,16.56,3.91,24.6,6.47,8.73,2.79,25.86,8.67,28,16.15l-.09.23c-3.57,8.78-12.5,10.18-25.38,6.34-13.88-4.14-28.13-9.51-41.8-14.11-10-3.38-28.86-8.1-34.71-15.51a10.51,10.51,0,0,1-1.63-8.6A41.29,41.29,0,0,1,448.37,368.8Z" transform="translate(33.73 13.19)"/><path class="cls-11" d="M491.37,367.63c-6.56-3.25-40.62-8-40.62-8a34,34,0,0,0-4.3,4.17c4.29-.92,36.68,6.52,42.37,7.8C495.9,373.16,497.93,370.89,491.37,367.63Z" transform="translate(33.73 13.19)"/><path class="cls-4" d="M460,481.17C462.51,475,491.67,389,491.67,389l19.83,4.56S501,454.91,490.72,487.91C481.17,492.14,468.45,488.54,460,481.17Z" transform="translate(33.73 13.19)"/></g></g></g></g></svg>