<svg xmlns="http://www.w3.org/2000/svg" xmlns:xlink="http://www.w3.org/1999/xlink" viewBox="0 0 593 350"><defs><style>.cls-1{isolation:isolate;}.cls-2{fill:#ff8f00;}.cls-11,.cls-13,.cls-14,.cls-15,.cls-16,.cls-17,.cls-18,.cls-19,.cls-2,.cls-20,.cls-21,.cls-22,.cls-23,.cls-24,.cls-25,.cls-26,.cls-27,.cls-28,.cls-29,.cls-3,.cls-30,.cls-31,.cls-32,.cls-33,.cls-34,.cls-35,.cls-36,.cls-37,.cls-38,.cls-39,.cls-4,.cls-40,.cls-41,.cls-42,.cls-43,.cls-44,.cls-45,.cls-46,.cls-47,.cls-48,.cls-49,.cls-50,.cls-51,.cls-52,.cls-53,.cls-54,.cls-55,.cls-56,.cls-57,.cls-58,.cls-59,.cls-60,.cls-61,.cls-62,.cls-63,.cls-64,.cls-65,.cls-66,.cls-67,.cls-68,.cls-69,.cls-70,.cls-71,.cls-73{fill-rule:evenodd;}.cls-3{fill:#ff7089;}.cls-4{fill:#f4f159;}.cls-5{opacity:0.61;}.cls-6{fill:#fff;}.cls-7{opacity:0.64;}.cls-8{mix-blend-mode:color-dodge;opacity:0.37;fill:url(#Áåçûìÿííûé_ãðàäèåíò_783);}.cls-9{fill:url(#Áåçûìÿííûé_ãðàäèåíò_25);}.cls-10,.cls-11,.cls-72,.cls-73{mix-blend-mode:screen;}.cls-10,.cls-11,.cls-12,.cls-13,.cls-14,.cls-15,.cls-16,.cls-17,.cls-18,.cls-19,.cls-20,.cls-21,.cls-22,.cls-23,.cls-24,.cls-25,.cls-26,.cls-27,.cls-28,.cls-29,.cls-30,.cls-31,.cls-32,.cls-33,.cls-34,.cls-35,.cls-36,.cls-37,.cls-38,.cls-39,.cls-40,.cls-41,.cls-42,.cls-43,.cls-44,.cls-45,.cls-46,.cls-47,.cls-48,.cls-49,.cls-50,.cls-51,.cls-52,.cls-53,.cls-54,.cls-55,.cls-56,.cls-57,.cls-58,.cls-59,.cls-60,.cls-61,.cls-62,.cls-63,.cls-64,.cls-65,.cls-66,.cls-67,.cls-68,.cls-69,.cls-70,.cls-71,.cls-72,.cls-73{opacity:0.5;}.cls-10{fill:url(#Áåçûìÿííûé_ãðàäèåíò_239);}.cls-11{fill:url(#Áåçûìÿííûé_ãðàäèåíò_239-2);}.cls-12{mix-blend-mode:multiply;}.cls-13{fill:url(#Áåçûìÿííûé_ãðàäèåíò_646);}.cls-14{fill:url(#Áåçûìÿííûé_ãðàäèåíò_646-2);}.cls-15{fill:url(#Áåçûìÿííûé_ãðàäèåíò_646-3);}.cls-16{fill:url(#Áåçûìÿííûé_ãðàäèåíò_646-4);}.cls-17{fill:url(#Áåçûìÿííûé_ãðàäèåíò_646-5);}.cls-18{fill:url(#Áåçûìÿííûé_ãðàäèåíò_646-6);}.cls-19{fill:url(#Áåçûìÿííûé_ãðàäèåíò_646-7);}.cls-20{fill:url(#Áåçûìÿííûé_ãðàäèåíò_646-8);}.cls-21{fill:url(#Áåçûìÿííûé_ãðàäèåíò_646-9);}.cls-22{fill:url(#Áåçûìÿííûé_ãðàäèåíò_646-10);}.cls-23{fill:url(#Áåçûìÿííûé_ãðàäèåíò_646-11);}.cls-24{fill:url(#Áåçûìÿííûé_ãðàäèåíò_646-12);}.cls-25{fill:url(#Áåçûìÿííûé_ãðàäèåíò_646-13);}.cls-26{fill:url(#Áåçûìÿííûé_ãðàäèåíò_646-14);}.cls-27{fill:url(#Áåçûìÿííûé_ãðàäèåíò_646-15);}.cls-28{fill:url(#Áåçûìÿííûé_ãðàäèåíò_646-16);}.cls-29{fill:url(#Áåçûìÿííûé_ãðàäèåíò_646-17);}.cls-30{fill:url(#Áåçûìÿííûé_ãðàäèåíò_646-18);}.cls-31{fill:url(#Áåçûìÿííûé_ãðàäèåíò_646-19);}.cls-32{fill:url(#Áåçûìÿííûé_ãðàäèåíò_646-20);}.cls-33{fill:url(#Áåçûìÿííûé_ãðàäèåíò_646-21);}.cls-34{fill:url(#Áåçûìÿííûé_ãðàäèåíò_646-22);}.cls-35{fill:url(#Áåçûìÿííûé_ãðàäèåíò_646-23);}.cls-36{fill:url(#Áåçûìÿííûé_ãðàäèåíò_646-24);}.cls-37{fill:url(#Áåçûìÿííûé_ãðàäèåíò_646-25);}.cls-38{fill:url(#Áåçûìÿííûé_ãðàäèåíò_646-26);}.cls-39{fill:url(#Áåçûìÿííûé_ãðàäèåíò_646-27);}.cls-40{fill:url(#Áåçûìÿííûé_ãðàäèåíò_646-28);}.cls-41{fill:url(#Áåçûìÿííûé_ãðàäèåíò_646-29);}.cls-42{fill:url(#Áåçûìÿííûé_ãðàäèåíò_646-30);}.cls-43{fill:url(#Áåçûìÿííûé_ãðàäèåíò_646-31);}.cls-44{fill:url(#Áåçûìÿííûé_ãðàäèåíò_646-32);}.cls-45{fill:url(#Áåçûìÿííûé_ãðàäèåíò_646-33);}.cls-46{fill:url(#Áåçûìÿííûé_ãðàäèåíò_646-34);}.cls-47{fill:url(#Áåçûìÿííûé_ãðàäèåíò_646-35);}.cls-48{fill:url(#Áåçûìÿííûé_ãðàäèåíò_646-36);}.cls-49{fill:url(#Áåçûìÿííûé_ãðàäèåíò_646-37);}.cls-50{fill:url(#Áåçûìÿííûé_ãðàäèåíò_646-38);}.cls-51{fill:url(#Áåçûìÿííûé_ãðàäèåíò_646-39);}.cls-52{fill:url(#Áåçûìÿííûé_ãðàäèåíò_646-40);}.cls-53{fill:url(#Áåçûìÿííûé_ãðàäèåíò_646-41);}.cls-54{fill:url(#Áåçûìÿííûé_ãðàäèåíò_646-42);}.cls-55{fill:url(#Áåçûìÿííûé_ãðàäèåíò_646-43);}.cls-56{fill:url(#Áåçûìÿííûé_ãðàäèåíò_646-44);}.cls-57{fill:url(#Áåçûìÿííûé_ãðàäèåíò_646-45);}.cls-58{fill:url(#Áåçûìÿííûé_ãðàäèåíò_646-46);}.cls-59{fill:url(#Áåçûìÿííûé_ãðàäèåíò_646-47);}.cls-60{fill:url(#Áåçûìÿííûé_ãðàäèåíò_646-48);}.cls-61{fill:url(#Áåçûìÿííûé_ãðàäèåíò_646-49);}.cls-62{fill:url(#Áåçûìÿííûé_ãðàäèåíò_646-50);}.cls-63{fill:url(#Áåçûìÿííûé_ãðàäèåíò_646-51);}.cls-64{fill:url(#Áåçûìÿííûé_ãðàäèåíò_646-52);}.cls-65{fill:url(#Áåçûìÿííûé_ãðàäèåíò_646-53);}.cls-66{fill:url(#Áåçûìÿííûé_ãðàäèåíò_646-54);}.cls-67{fill:url(#Áåçûìÿííûé_ãðàäèåíò_646-55);}.cls-68{fill:url(#Áåçûìÿííûé_ãðàäèåíò_646-56);}.cls-69{fill:url(#Áåçûìÿííûé_ãðàäèåíò_646-57);}.cls-70{fill:url(#Áåçûìÿííûé_ãðàäèåíò_646-58);}.cls-71{fill:url(#Áåçûìÿííûé_ãðàäèåíò_646-59);}.cls-72{fill:url(#Áåçûìÿííûé_ãðàäèåíò_239-3);}.cls-73{fill:url(#Áåçûìÿííûé_ãðàäèåíò_239-4);}</style><radialGradient id="Áåçûìÿííûé_ãðàäèåíò_783" cx="898.25" cy="-90.14" r="41.87" gradientTransform="matrix(0.23, -0.01, 0.01, 0.26, 116.02, 116.25)" gradientUnits="userSpaceOnUse"><stop offset="0" stop-color="#c09a95"/><stop offset="0.2" stop-color="#866b68"/><stop offset="0.39" stop-color="#564543"/><stop offset="0.57" stop-color="#312726"/><stop offset="0.74" stop-color="#161211"/><stop offset="0.89" stop-color="#060504"/><stop offset="1"/></radialGradient><linearGradient id="Áåçûìÿííûé_ãðàäèåíò_25" x1="231.46" y1="10.56" x2="240.93" y2="84.73" gradientUnits="userSpaceOnUse"><stop offset="0.28" stop-color="#6a5f82"/><stop offset="0.44" stop-color="#66597d"/><stop offset="0.65" stop-color="#5c496f"/><stop offset="0.88" stop-color="#4a2f58"/><stop offset="1" stop-color="#3f1f49"/></linearGradient><linearGradient id="Áåçûìÿííûé_ãðàäèåíò_239" x1="292.48" y1="246.88" x2="277.37" y2="313" gradientUnits="userSpaceOnUse"><stop offset="0" stop-color="#178cff"/><stop offset="1"/></linearGradient><linearGradient id="Áåçûìÿííûé_ãðàäèåíò_239-2" x1="148.08" y1="252.23" x2="136.46" y2="338.41" xlink:href="#Áåçûìÿííûé_ãðàäèåíò_239"/><linearGradient id="Áåçûìÿííûé_ãðàäèåíò_646" x1="-125" y1="362.86" x2="-120.47" y2="346.08" gradientTransform="matrix(-1, 0.07, 0.07, 1, 70, 47.41)" gradientUnits="userSpaceOnUse"><stop offset="0" stop-color="#693bef"/><stop offset="1" stop-color="#361756"/></linearGradient><linearGradient id="Áåçûìÿííûé_ãðàäèåíò_646-2" x1="-93.93" y1="372.73" x2="-89.39" y2="355.95" xlink:href="#Áåçûìÿííûé_ãðàäèåíò_646"/><linearGradient id="Áåçûìÿííûé_ãðàäèåíò_646-3" x1="-103.47" y1="369.07" x2="-98.93" y2="352.29" xlink:href="#Áåçûìÿííûé_ãðàäèåíò_646"/><linearGradient id="Áåçûìÿííûé_ãðàäèåíò_646-4" x1="-82.85" y1="375.93" x2="-78.31" y2="359.15" xlink:href="#Áåçûìÿííûé_ãðàäèåíò_646"/><linearGradient id="Áåçûìÿííûé_ãðàäèåíò_646-5" x1="-47.31" y1="384.93" x2="-42.77" y2="368.16" xlink:href="#Áåçûìÿííûé_ãðàäèåíò_646"/><linearGradient id="Áåçûìÿííûé_ãðàäèåíò_646-6" x1="-188.3" y1="347.19" x2="-183.76" y2="330.41" xlink:href="#Áåçûìÿííûé_ãðàäèåíò_646"/><linearGradient id="Áåçûìÿííûé_ãðàäèåíò_646-7" x1="-118.89" y1="356.88" x2="-114.35" y2="340.1" xlink:href="#Áåçûìÿííûé_ãðàäèåíò_646"/><linearGradient id="Áåçûìÿííûé_ãðàäèåíò_646-8" x1="-168.79" y1="348.72" x2="-164.26" y2="331.94" xlink:href="#Áåçûìÿííûé_ãðàäèåíò_646"/><linearGradient id="Áåçûìÿííûé_ãðàäèåíò_646-9" x1="-98.23" y1="370.13" x2="-93.69" y2="353.35" xlink:href="#Áåçûìÿííûé_ãðàäèåíò_646"/><linearGradient id="Áåçûìÿííûé_ãðàäèåíò_646-10" x1="-91.76" y1="374.35" x2="-87.22" y2="357.57" xlink:href="#Áåçûìÿííûé_ãðàäèåíò_646"/><linearGradient id="Áåçûìÿííûé_ãðàäèåíò_646-11" x1="-75.52" y1="344.95" x2="-70.77" y2="327.38" gradientTransform="matrix(-1, -0.04, -0.04, 1, 88.59, 77.9)" xlink:href="#Áåçûìÿííûé_ãðàäèåíò_646"/><linearGradient id="Áåçûìÿííûé_ãðàäèåíò_646-12" x1="-41.65" y1="355.36" x2="-36.9" y2="337.79" gradientTransform="matrix(-1, -0.04, -0.04, 1, 88.59, 77.9)" xlink:href="#Áåçûìÿííûé_ãðàäèåíò_646"/><linearGradient id="Áåçûìÿííûé_ãðàäèåíò_646-13" x1="-52.27" y1="351.59" x2="-47.52" y2="334.01" gradientTransform="matrix(-1, -0.04, -0.04, 1, 88.59, 77.9)" xlink:href="#Áåçûìÿííûé_ãðàäèåíò_646"/><linearGradient id="Áåçûìÿííûé_ãðàäèåíò_646-14" x1="-29.69" y1="358.79" x2="-24.94" y2="341.21" gradientTransform="matrix(-1, -0.04, -0.04, 1, 88.59, 77.9)" xlink:href="#Áåçûìÿííûé_ãðàäèåíò_646"/><linearGradient id="Áåçûìÿííûé_ãðàäèåíò_646-15" x1="8.25" y1="368.58" x2="13" y2="351.01" gradientTransform="matrix(-1, -0.04, -0.04, 1, 88.59, 77.9)" xlink:href="#Áåçûìÿííûé_ãðàäèåíò_646"/><linearGradient id="Áåçûìÿííûé_ãðàäèåíò_646-16" x1="-260.46" y1="324.62" x2="-258.09" y2="315.83" xlink:href="#Áåçûìÿííûé_ãðàäèåíò_646"/><linearGradient id="Áåçûìÿííûé_ãðàäèåíò_646-17" x1="-244.18" y1="329.79" x2="-241.8" y2="321" xlink:href="#Áåçûìÿííûé_ãðàäèåíò_646"/><linearGradient id="Áåçûìÿííûé_ãðàäèåíò_646-18" x1="-249.18" y1="327.87" x2="-246.8" y2="319.08" xlink:href="#Áåçûìÿííûé_ãðàäèåíò_646"/><linearGradient id="Áåçûìÿííûé_ãðàäèåíò_646-19" x1="-238.38" y1="331.47" x2="-236" y2="322.68" xlink:href="#Áåçûìÿííûé_ãðàäèåíò_646"/><linearGradient id="Áåçûìÿííûé_ãðàäèåíò_646-20" x1="-249.68" y1="171.41" x2="-247.25" y2="162.42" gradientTransform="matrix(-1, 0.03, 0.03, 1, 56.69, 205.3)" xlink:href="#Áåçûìÿííûé_ãðàäèåíò_646"/><linearGradient id="Áåçûìÿííûé_ãðàäèåíò_646-21" x1="-293.63" y1="316.41" x2="-291.26" y2="307.62" xlink:href="#Áåçûìÿííûé_ãðàäèåíò_646"/><linearGradient id="Áåçûìÿííûé_ãðàäèåíò_646-22" x1="-267.08" y1="322.41" x2="-264.7" y2="313.61" xlink:href="#Áåçûìÿííûé_ãðàäèåíò_646"/><linearGradient id="Áåçûìÿííûé_ãðàäèåíò_646-23" x1="-283.41" y1="317.21" x2="-281.04" y2="308.42" xlink:href="#Áåçûìÿííûé_ãðàäèåíò_646"/><linearGradient id="Áåçûìÿííûé_ãðàäèåíò_646-24" x1="-246.44" y1="328.43" x2="-244.06" y2="319.64" xlink:href="#Áåçûìÿííûé_ãðàäèåíò_646"/><linearGradient id="Áåçûìÿííûé_ãðàäèåíò_646-25" x1="-243.04" y1="330.64" x2="-240.67" y2="321.85" xlink:href="#Áåçûìÿííûé_ãðàäèåíò_646"/><linearGradient id="Áåçûìÿííûé_ãðàäèåíò_646-26" x1="-230.32" y1="365.18" x2="-227.87" y2="356.1" gradientTransform="matrix(-1, -0.02, -0.02, 1, 93.46, -4.74)" xlink:href="#Áåçûìÿííûé_ãðàäèåíò_646"/><linearGradient id="Áåçûìÿííûé_ãðàäèåíò_646-27" x1="-221.22" y1="283.85" x2="-218.73" y2="274.64" gradientTransform="matrix(-1, -0.04, -0.04, 1, 88.59, 77.9)" xlink:href="#Áåçûìÿííûé_ãðàäèåíò_646"/><linearGradient id="Áåçûìÿííûé_ãðàäèåíò_646-28" x1="-226.78" y1="281.87" x2="-224.29" y2="272.66" gradientTransform="matrix(-1, -0.04, -0.04, 1, 88.59, 77.9)" xlink:href="#Áåçûìÿííûé_ãðàäèåíò_646"/><linearGradient id="Áåçûìÿííûé_ãðàäèåíò_646-29" x1="-216.35" y1="286.55" x2="-213.86" y2="277.34" gradientTransform="matrix(-1, -0.04, -0.04, 1, 88.59, 77.9)" xlink:href="#Áåçûìÿííûé_ãðàäèåíò_646"/><linearGradient id="Áåçûìÿííûé_ãðàäèåíò_646-30" x1="106.05" y1="273.94" x2="107.86" y2="267.25" gradientTransform="translate(345.57 47.41) rotate(4.19)" xlink:href="#Áåçûìÿííûé_ãðàäèåíò_646"/><linearGradient id="Áåçûìÿííûé_ãðàäèåíò_646-31" x1="118.44" y1="277.87" x2="120.24" y2="271.18" gradientTransform="translate(345.57 47.41) rotate(4.19)" xlink:href="#Áåçûìÿííûé_ãðàäèåíò_646"/><linearGradient id="Áåçûìÿííûé_ãðàäèåíò_646-32" x1="114.64" y1="276.41" x2="116.44" y2="269.73" gradientTransform="translate(345.57 47.41) rotate(4.19)" xlink:href="#Áåçûìÿííûé_ãðàäèåíò_646"/><linearGradient id="Áåçûìÿííûé_ãðàäèåíò_646-33" x1="122.85" y1="279.15" x2="124.66" y2="272.46" gradientTransform="translate(345.57 47.41) rotate(4.19)" xlink:href="#Áåçûìÿííûé_ãðàäèåíò_646"/><linearGradient id="Áåçûìÿííûé_ãðàäèåíò_646-34" x1="137.01" y1="282.73" x2="138.82" y2="276.05" gradientTransform="translate(345.57 47.41) rotate(4.19)" xlink:href="#Áåçûìÿííûé_ãðàäèåíò_646"/><linearGradient id="Áåçûìÿííûé_ãðàäèåíò_646-35" x1="80.83" y1="267.69" x2="82.64" y2="261.01" gradientTransform="translate(345.57 47.41) rotate(4.19)" xlink:href="#Áåçûìÿííûé_ãðàäèåíò_646"/><linearGradient id="Áåçûìÿííûé_ãðàäèåíò_646-36" x1="101.03" y1="272.25" x2="102.83" y2="265.57" gradientTransform="translate(345.57 47.41) rotate(4.19)" xlink:href="#Áåçûìÿííûé_ãðàäèåíò_646"/><linearGradient id="Áåçûìÿííûé_ãðàäèåíò_646-37" x1="88.61" y1="268.3" x2="90.41" y2="261.62" gradientTransform="translate(345.57 47.41) rotate(4.19)" xlink:href="#Áåçûìÿííûé_ãðàäèåíò_646"/><linearGradient id="Áåçûìÿííûé_ãðàäèåíò_646-38" x1="116.72" y1="276.83" x2="118.53" y2="270.15" gradientTransform="translate(345.57 47.41) rotate(4.19)" xlink:href="#Áåçûìÿííûé_ãðàäèåíò_646"/><linearGradient id="Áåçûìÿííûé_ãðàäèåíò_646-39" x1="119.3" y1="278.51" x2="121.11" y2="271.83" gradientTransform="translate(345.57 47.41) rotate(4.19)" xlink:href="#Áåçûìÿííûé_ãðàäèåíò_646"/><linearGradient id="Áåçûìÿííûé_ãðàäèåíò_646-40" x1="122.19" y1="265.56" x2="124.08" y2="258.56" gradientTransform="matrix(1, -0.04, 0.04, 1, 326.98, 77.9)" xlink:href="#Áåçûìÿííûé_ãðàäèåíò_646"/><linearGradient id="Áåçûìÿííûé_ãðàäèåíò_646-41" x1="135.68" y1="269.71" x2="137.58" y2="262.71" gradientTransform="matrix(1, -0.04, 0.04, 1, 326.98, 77.9)" xlink:href="#Áåçûìÿííûé_ãðàäèåíò_646"/><linearGradient id="Áåçûìÿííûé_ãðàäèåíò_646-42" x1="131.45" y1="268.2" x2="133.35" y2="261.2" gradientTransform="matrix(1, -0.04, 0.04, 1, 326.98, 77.9)" xlink:href="#Áåçûìÿííûé_ãðàäèåíò_646"/><linearGradient id="Áåçûìÿííûé_ãðàäèåíò_646-43" x1="140.45" y1="271.07" x2="142.34" y2="264.07" gradientTransform="matrix(1, -0.04, 0.04, 1, 326.98, 77.9)" xlink:href="#Áåçûìÿííûé_ãðàäèåíò_646"/><linearGradient id="Áåçûìÿííûé_ãðàäèåíò_646-44" x1="155.57" y1="274.98" x2="157.46" y2="267.98" gradientTransform="matrix(1, -0.04, 0.04, 1, 326.98, 77.9)" xlink:href="#Áåçûìÿííûé_ãðàäèåíò_646"/><linearGradient id="Áåçûìÿííûé_ãðàäèåíò_646-45" x1="54.19" y1="387.22" x2="59.46" y2="367.7" gradientTransform="translate(345.57 47.41) rotate(4.19)" xlink:href="#Áåçûìÿííûé_ãðàäèåíò_646"/><linearGradient id="Áåçûìÿííûé_ãðàäèåíò_646-46" x1="90.35" y1="398.7" x2="95.62" y2="379.18" gradientTransform="translate(345.57 47.41) rotate(4.19)" xlink:href="#Áåçûìÿííûé_ãðàäèåíò_646"/><linearGradient id="Áåçûìÿííûé_ãðàäèåíò_646-47" x1="79.25" y1="394.44" x2="84.52" y2="374.92" gradientTransform="translate(345.57 47.41) rotate(4.19)" xlink:href="#Áåçûìÿííûé_ãðàäèåíò_646"/><linearGradient id="Áåçûìÿííûé_ãðàäèåíò_646-48" x1="103.24" y1="402.43" x2="108.51" y2="382.91" gradientTransform="translate(345.57 47.41) rotate(4.19)" xlink:href="#Áåçûìÿííûé_ãðàäèåíò_646"/><linearGradient id="Áåçûìÿííûé_ãðàäèåíò_646-49" x1="144.59" y1="412.9" x2="149.87" y2="393.38" gradientTransform="translate(345.57 47.41) rotate(4.19)" xlink:href="#Áåçûìÿííûé_ãðàäèåíò_646"/><linearGradient id="Áåçûìÿííûé_ãðàäèåíò_646-50" x1="-19.46" y1="368.99" x2="-14.19" y2="349.46" gradientTransform="translate(345.57 47.41) rotate(4.19)" xlink:href="#Áåçûìÿííûé_ãðàäèåíò_646"/><linearGradient id="Áåçûìÿííûé_ãðàäèåíò_646-51" x1="40.96" y1="379.1" x2="46.24" y2="359.58" gradientTransform="translate(345.57 47.41) rotate(4.19)" xlink:href="#Áåçûìÿííûé_ãðàäèåíò_646"/><linearGradient id="Áåçûìÿííûé_ãðàäèåíò_646-52" x1="3.23" y1="370.76" x2="8.51" y2="351.24" gradientTransform="translate(345.57 47.41) rotate(4.19)" xlink:href="#Áåçûìÿííûé_ãðàäèåíò_646"/><linearGradient id="Áåçûìÿííûé_ãðàäèåíò_646-53" x1="85.34" y1="395.68" x2="90.62" y2="376.15" gradientTransform="translate(345.57 47.41) rotate(4.19)" xlink:href="#Áåçûìÿííûé_ãðàäèåíò_646"/><linearGradient id="Áåçûìÿííûé_ãðàäèåíò_646-54" x1="92.87" y1="400.59" x2="98.15" y2="381.06" gradientTransform="translate(345.57 47.41) rotate(4.19)" xlink:href="#Áåçûìÿííûé_ãðàäèåíò_646"/><linearGradient id="Áåçûìÿííûé_ãðàäèåíò_646-55" x1="111.2" y1="393.83" x2="116.73" y2="373.38" gradientTransform="matrix(1, -0.04, 0.04, 1, 326.98, 77.9)" xlink:href="#Áåçûìÿííûé_ãðàäèåíò_646"/><linearGradient id="Áåçûìÿííûé_ãðàäèåíò_646-56" x1="150.6" y1="405.95" x2="156.13" y2="385.5" gradientTransform="matrix(1, -0.04, 0.04, 1, 326.98, 77.9)" xlink:href="#Áåçûìÿííûé_ãðàäèåíò_646"/><linearGradient id="Áåçûìÿííûé_ãðàäèåíò_646-57" x1="138.25" y1="401.56" x2="143.78" y2="381.11" gradientTransform="matrix(1, -0.04, 0.04, 1, 326.98, 77.9)" xlink:href="#Áåçûìÿííûé_ãðàäèåíò_646"/><linearGradient id="Áåçûìÿííûé_ãðàäèåíò_646-58" x1="164.52" y1="409.93" x2="170.05" y2="389.48" gradientTransform="matrix(1, -0.04, 0.04, 1, 326.98, 77.9)" xlink:href="#Áåçûìÿííûé_ãðàäèåíò_646"/><linearGradient id="Áåçûìÿííûé_ãðàäèåíò_646-59" x1="208.67" y1="421.33" x2="214.2" y2="400.89" gradientTransform="matrix(1, -0.04, 0.04, 1, 326.98, 77.9)" xlink:href="#Áåçûìÿííûé_ãðàäèåíò_646"/><linearGradient id="Áåçûìÿííûé_ãðàäèåíò_239-3" x1="322.81" y1="313.84" x2="322.67" y2="320.84" xlink:href="#Áåçûìÿííûé_ãðàäèåíò_239"/><linearGradient id="Áåçûìÿííûé_ãðàäèåíò_239-4" x1="159.71" y1="266.74" x2="155.62" y2="292.27" xlink:href="#Áåçûìÿííûé_ãðàäèåíò_239"/></defs><g class="cls-1"><g id="Layer_2" data-name="Layer 2"><g id="Ñëîé_1" data-name="Ñëîé 1"><path class="cls-2" d="M138,263.63c.05.43-.58.91-1.41,1.06s-1.55-.06-1.6-.5.57-.9,1.4-1.06S137.92,263.2,138,263.63Z"/><path class="cls-2" d="M174.2,249.17c.1.71-.93,1.49-2.3,1.74s-2.54-.11-2.63-.82.93-1.49,2.3-1.74S174.11,248.46,174.2,249.17Z"/><path class="cls-2" d="M176.79,248.13a.61.61,0,0,1-.4-.71c0-.36.27-.61.52-.58a.62.62,0,0,1,.41.71C177.28,247.91,177,248.16,176.79,248.13Z"/><path class="cls-2" d="M184.85,244c-.08-.25.29-.68.84-.95s1.06-.27,1.14,0-.28.68-.83.95S184.94,244.24,184.85,244Z"/><path class="cls-2" d="M205.46,232.65c0-.28.53-.41,1.12-.3s1,.43,1,.7-.54.41-1.12.3S205.42,232.92,205.46,232.65Z"/><path class="cls-3" d="M252.29,262.8c-.19.61-1.3.68-2.49.16s-2-1.45-1.79-2.07,1.3-.69,2.48-.16S252.48,262.18,252.29,262.8Z"/><path class="cls-3" d="M310.2,275.63c-.19.62-1.3.69-2.49.16s-2-1.45-1.79-2.06,1.3-.69,2.48-.16S310.39,275,310.2,275.63Z"/><path class="cls-3" d="M312.56,276.61a1,1,0,0,1-.1-1.28.7.7,0,0,1,1.05-.29,1.05,1.05,0,0,1,.09,1.28C313.34,276.76,312.87,276.89,312.56,276.61Z"/><path class="cls-3" d="M325.64,278.28c.05-.41.79-.64,1.67-.51s1.56.57,1.52,1-.79.65-1.67.52S325.6,278.7,325.64,278.28Z"/><path class="cls-3" d="M359.53,281.55c.22-.33,1-.06,1.65.6s1.08,1.46.87,1.78-.95.06-1.65-.6S359.32,281.88,359.53,281.55Z"/><path class="cls-4" d="M299.57,232.89c.13.15,0,.57-.27,1s-.62.55-.76.4,0-.56.27-.94S299.43,232.75,299.57,232.89Z"/><path class="cls-3" d="M308.12,217.75c.13.15,0,.57-.27.94s-.62.56-.76.41,0-.57.27-.94S308,217.6,308.12,217.75Z"/><path class="cls-4" d="M310.64,212.25c-.11.09-.26,0-.34-.12a.36.36,0,0,1,.06-.43c.1-.08.26,0,.34.13A.34.34,0,0,1,310.64,212.25Z"/><path class="cls-4" d="M312.7,207.6c-.1-.06-.07-.37.08-.68s.34-.5.44-.44.07.38-.07.69S312.8,207.67,312.7,207.6Z"/><path class="cls-4" d="M317.77,195.44c-.06-.12.1-.36.36-.54s.51-.22.57-.1-.11.36-.36.54S317.83,195.56,317.77,195.44Z"/><path class="cls-4" d="M296,244.16c-.12.22-.38.13-.58-.2a1.15,1.15,0,0,1-.14-1c.12-.22.38-.13.58.2A1.12,1.12,0,0,1,296,244.16Z"/><path class="cls-4" d="M307.42,255.31c-.12.22-.38.12-.58-.21a1.15,1.15,0,0,1-.14-1c.12-.21.38-.12.58.21A1.12,1.12,0,0,1,307.42,255.31Z"/><path class="cls-4" d="M307.83,255.94a.71.71,0,0,1,.14-.51c.12-.14.24-.14.28,0a.68.68,0,0,1-.15.51C308,256.08,307.87,256.08,307.83,255.94Z"/><path class="cls-4" d="M310.58,258c.06-.15.26-.16.44,0a.55.55,0,0,1,.22.54c-.07.16-.26.17-.45,0A.51.51,0,0,1,310.58,258Z"/><path class="cls-4" d="M317.82,262.86c.09-.1.22.08.29.41a1.12,1.12,0,0,1,0,.78c-.09.11-.22-.07-.29-.4A1.16,1.16,0,0,1,317.82,262.86Z"/><path class="cls-2" d="M130.05,271.41c0,.15-.2.31-.48.36s-.52,0-.54-.17.19-.3.47-.36S130,271.27,130.05,271.41Z"/><path class="cls-2" d="M167.45,255.75c0,.14-.19.3-.47.36s-.53,0-.55-.17.19-.31.48-.36S167.43,255.6,167.45,255.75Z"/><path class="cls-2" d="M143.21,266.15c-.09,0-.15-.12-.14-.24s.09-.2.18-.19.15.12.14.24S143.3,266.17,143.21,266.15Z"/><path class="cls-2" d="M145.94,264.75c0-.09.1-.23.29-.32s.36-.1.39,0-.1.23-.29.32S146,264.84,145.94,264.75Z"/><path class="cls-2" d="M153.62,255c0-.08.07-.24.24-.36s.35-.15.39-.07-.07.24-.25.36S153.66,255.1,153.62,255Z"/><path class="cls-2" d="M151.51,253.75c0,.2-.26.42-.64.49s-.71,0-.73-.23.26-.42.64-.49S151.49,253.55,151.51,253.75Z"/><path class="cls-2" d="M168.51,246.82c0,.2-.26.42-.64.49s-.71,0-.74-.23.27-.41.65-.49S168.48,246.63,168.51,246.82Z"/><path class="cls-2" d="M169.26,246.66c-.12,0-.2-.16-.18-.32s.12-.28.24-.26.2.16.18.32S169.38,246.68,169.26,246.66Z"/><path class="cls-2" d="M169.33,243.66c-.09-.25.28-.67.81-.93s1-.27,1.13,0-.28.67-.82.93S169.41,243.91,169.33,243.66Z"/><path class="cls-2" d="M182.37,239.59c0-.13.24-.19.51-.14s.47.2.45.32-.24.19-.51.14S182.35,239.71,182.37,239.59Z"/><g class="cls-5"><ellipse class="cls-6" cx="177.44" cy="63.27" rx="0.49" ry="0.65"/><path class="cls-6" d="M192.48,62.18c0,.24-.14.44-.32.44s-.33-.2-.33-.44.15-.44.33-.44S192.48,61.94,192.48,62.18Z"/><path class="cls-6" d="M184,139c.24-.16.53,0,.65.3a.76.76,0,0,1-.22.87c-.24.16-.53,0-.65-.3A.76.76,0,0,1,184,139Z"/><path class="cls-6" d="M195.42,79.47c.16-.11.36,0,.44.2a.5.5,0,0,1-.15.58c-.16.11-.36,0-.43-.2A.51.51,0,0,1,195.42,79.47Z"/><path class="cls-6" d="M127.82,127.75a1,1,0,0,1,.55,1.1c-.08.51-.44.85-.82.75a1,1,0,0,1-.55-1.11C127.07,128,127.44,127.65,127.82,127.75Z"/><g class="cls-7"><path class="cls-6" d="M40.51,103.82a.25.25,0,0,1-.21.28c-.12,0-.21-.12-.21-.28s.09-.29.21-.29S40.51,103.66,40.51,103.82Z"/><path class="cls-6" d="M49.13,91a.17.17,0,0,1-.14.19c-.08,0-.14-.08-.14-.19s.06-.19.14-.19S49.13,90.88,49.13,91Z"/><path class="cls-6" d="M51.21,118.32a.2.2,0,0,1,.29.13.35.35,0,0,1-.1.38c-.1.07-.23,0-.28-.13A.34.34,0,0,1,51.21,118.32Z"/><path class="cls-6" d="M71.44,94.93a.13.13,0,0,1,.19.09.21.21,0,0,1-.06.25.12.12,0,0,1-.19-.08A.26.26,0,0,1,71.44,94.93Z"/><path class="cls-6" d="M26.07,117.39a.42.42,0,0,1,.24.48c0,.22-.19.37-.35.33a.42.42,0,0,1-.24-.49C25.75,117.49,25.91,117.35,26.07,117.39Z"/></g><g class="cls-7"><path class="cls-6" d="M167.42,105.53a.28.28,0,0,1,.17-.32c.12,0,.22.07.24.23a.29.29,0,0,1-.17.33C167.55,105.79,167.44,105.69,167.42,105.53Z"/><path class="cls-6" d="M161.24,107.45a.2.2,0,0,1,.12-.22c.07,0,.15,0,.16.16a.2.2,0,0,1-.12.22C161.33,107.62,161.26,107.55,161.24,107.45Z"/><path class="cls-6" d="M145.45,107.32a.32.32,0,0,1-.53-.11.65.65,0,0,1,.09-.72.32.32,0,0,1,.53.12A.63.63,0,0,1,145.45,107.32Z"/><path class="cls-6" d="M169.54,86a.21.21,0,0,1-.35-.08.4.4,0,0,1,.05-.47.22.22,0,0,1,.36.07A.44.44,0,0,1,169.54,86Z"/><path class="cls-6" d="M179.94,88.85c-.17,0-.3-.19-.3-.42s.14-.4.31-.4a.39.39,0,0,1,.3.42C180.24,88.68,180.11,88.86,179.94,88.85Z"/><path class="cls-6" d="M128.61,82.43c0,.29-.17.52-.38.52s-.38-.23-.38-.52.17-.51.38-.51S128.61,82.15,128.61,82.43Z"/><path class="cls-6" d="M114.87,118c0,.56-.34,1-.76,1s-.77-.47-.77-1,.35-1,.77-1S114.87,117.41,114.87,118Z"/></g><g class="cls-7"><path class="cls-6" d="M307.9,19.3a.38.38,0,0,1-.17.43c-.13.06-.27,0-.32-.22a.38.38,0,0,1,.16-.43C307.71,19,307.85,19.12,307.9,19.3Z"/><path class="cls-6" d="M314.17.16a.25.25,0,0,1-.11.29c-.09,0-.18,0-.21-.15A.25.25,0,0,1,314,0C314,0,314.14,0,314.17.16Z"/><path class="cls-6" d="M324.26,30.45a.21.21,0,0,1,.36,0,.44.44,0,0,1,0,.49.21.21,0,0,1-.36,0A.44.44,0,0,1,324.26,30.45Z"/><path class="cls-6" d="M502.56,63.74a.14.14,0,0,1,.24,0,.29.29,0,0,1,0,.32.14.14,0,0,1-.24,0A.27.27,0,0,1,502.56,63.74Z"/><path class="cls-6" d="M295.16,42.26c.2,0,.38.16.41.43a.51.51,0,0,1-.32.56c-.2,0-.39-.16-.41-.43A.5.5,0,0,1,295.16,42.26Z"/></g><g class="cls-7"><path class="cls-6" d="M543.67,97a.46.46,0,0,1,0,.49.21.21,0,0,1-.36,0,.42.42,0,0,1,0-.49A.21.21,0,0,1,543.67,97Z"/><path class="cls-6" d="M542.71,76.11a.29.29,0,0,1,0,.33.14.14,0,0,1-.24,0,.27.27,0,0,1,0-.32A.14.14,0,0,1,542.71,76.11Z"/><path class="cls-6" d="M562,96.73a.25.25,0,0,1,.32-.22.39.39,0,0,1,.16.44c0,.18-.18.28-.32.22A.4.4,0,0,1,562,96.73Z"/><path class="cls-6" d="M564.07,53.39c0-.12.12-.19.21-.15a.25.25,0,0,1,.11.29c0,.12-.13.19-.22.15A.25.25,0,0,1,564.07,53.39Z"/><path class="cls-6" d="M540.2,125.31a.31.31,0,0,1,.51.12.61.61,0,0,1-.1.69c-.16.16-.39.1-.51-.13A.6.6,0,0,1,540.2,125.31Z"/></g><g class="cls-7"><path class="cls-6" d="M328.36,112.18a.27.27,0,0,1-.4.06.35.35,0,0,1,0-.44.27.27,0,0,1,.4-.06A.33.33,0,0,1,328.36,112.18Z"/><path class="cls-6" d="M345.35,108.73a.18.18,0,0,1-.27,0,.23.23,0,0,1,0-.29.18.18,0,0,1,.26,0A.21.21,0,0,1,345.35,108.73Z"/><path class="cls-6" d="M328.77,134.65a.29.29,0,0,1,.19.37.33.33,0,0,1-.36.25.3.3,0,0,1-.18-.37A.31.31,0,0,1,328.77,134.65Z"/><path class="cls-6" d="M364.07,132.48a.19.19,0,0,1,.12.25.21.21,0,0,1-.23.16.19.19,0,0,1-.12-.25A.21.21,0,0,1,364.07,132.48Z"/><path class="cls-6" d="M305.29,111a.51.51,0,0,1-.1.64.36.36,0,0,1-.56,0,.51.51,0,0,1,.1-.64A.36.36,0,0,1,305.29,111Z"/></g><g class="cls-7"><path class="cls-6" d="M410.16,133.28a.44.44,0,0,1,0,.49.21.21,0,0,1-.36,0,.42.42,0,0,1,0-.48A.21.21,0,0,1,410.16,133.28Z"/><path class="cls-6" d="M409.2,112.39a.27.27,0,0,1,0,.32.14.14,0,0,1-.24,0,.3.3,0,0,1,0-.33A.14.14,0,0,1,409.2,112.39Z"/><path class="cls-6" d="M429.34,128c0-.18.18-.28.32-.22a.4.4,0,0,1,.16.44c0,.18-.19.28-.32.22A.37.37,0,0,1,429.34,128Z"/><path class="cls-6" d="M430.56,89.66c0-.12.12-.18.21-.14a.25.25,0,0,1,.11.29c0,.12-.13.18-.21.14A.25.25,0,0,1,430.56,89.66Z"/><path class="cls-6" d="M414.29,152.51a.32.32,0,0,1,.52.13.62.62,0,0,1-.1.69.31.31,0,0,1-.51-.13A.64.64,0,0,1,414.29,152.51Z"/></g><g class="cls-7"><path class="cls-6" d="M361.14,81.15a.29.29,0,0,1-.17.33c-.11,0-.22-.08-.24-.23s.06-.31.17-.33S361.12,81,361.14,81.15Z"/><path class="cls-6" d="M367.32,79.23a.21.21,0,0,1-.11.22c-.08,0-.15,0-.17-.15s0-.21.12-.22S367.31,79.13,367.32,79.23Z"/><path class="cls-6" d="M383.11,79.36a.32.32,0,0,1,.53.12.63.63,0,0,1-.09.71.32.32,0,0,1-.53-.11A.65.65,0,0,1,383.11,79.36Z"/><path class="cls-6" d="M375.92,67.4a.22.22,0,0,1,.36.08.42.42,0,0,1-.06.47.21.21,0,0,1-.35-.07A.42.42,0,0,1,375.92,67.4Z"/><path class="cls-6" d="M344.4,103.88c.17,0,.3.19.3.42s-.15.4-.31.4a.39.39,0,0,1-.3-.42C344.09,104.05,344.23,103.87,344.4,103.88Z"/><ellipse class="cls-6" cx="394.46" cy="130.68" rx="0.38" ry="0.52"/><path class="cls-6" d="M413.69,68.71c0-.57.34-1,.77-1s.76.46.76,1-.34,1-.76,1S413.69,69.28,413.69,68.71Z"/></g><g class="cls-7"><path class="cls-6" d="M137.72,195.8c0-.15.16-.25.27-.22a.28.28,0,0,1,.15.33c0,.15-.16.25-.27.22A.27.27,0,0,1,137.72,195.8Z"/><path class="cls-6" d="M131.41,194.65c0-.1.11-.16.18-.14s.12.11.1.22a.16.16,0,0,1-.18.14A.18.18,0,0,1,131.41,194.65Z"/><path class="cls-6" d="M117,187.09c-.21.08-.41-.08-.45-.35a.59.59,0,0,1,.32-.62c.21-.07.41.09.45.36A.56.56,0,0,1,117,187.09Z"/><path class="cls-6" d="M119.59,201.47c-.14.05-.27-.06-.3-.24a.39.39,0,0,1,.21-.41c.14,0,.28.06.3.24A.37.37,0,0,1,119.59,201.47Z"/><path class="cls-6" d="M160.64,182.82a.43.43,0,0,1-.14-.53.32.32,0,0,1,.42-.22.44.44,0,0,1,.13.53A.31.31,0,0,1,160.64,182.82Z"/><path class="cls-6" d="M123.89,134.78c-.09.26-.33.39-.52.29a.54.54,0,0,1-.18-.65c.09-.26.33-.39.52-.29A.52.52,0,0,1,123.89,134.78Z"/></g><g class="cls-7"><path class="cls-6" d="M369.77,187.48c.06-.34.25-.57.44-.5s.29.4.24.74-.25.57-.44.5S369.72,187.82,369.77,187.48Z"/><path class="cls-6" d="M359.42,184.87c0-.23.17-.37.3-.33s.19.27.16.5-.17.37-.29.33S359.39,185.1,359.42,184.87Z"/><path class="cls-6" d="M335.71,167.74c-.34.16-.67-.2-.73-.81a1.46,1.46,0,0,1,.51-1.39c.35-.17.68.19.74.8A1.45,1.45,0,0,1,335.71,167.74Z"/><path class="cls-6" d="M340,200.32c-.23.11-.45-.13-.49-.54a1,1,0,0,1,.34-.93c.23-.11.45.13.49.53A1,1,0,0,1,340,200.32Z"/><path class="cls-6" d="M442.34,174.91a1.22,1.22,0,0,1-.21-1.19c.12-.47.43-.69.68-.5a1.21,1.21,0,0,1,.22,1.19C442.9,174.87,442.59,175.1,442.34,174.91Z"/><path class="cls-6" d="M347.09,49.17c-.16.6-.54.89-.86.67a1.51,1.51,0,0,1-.29-1.48c.15-.59.54-.89.85-.67A1.51,1.51,0,0,1,347.09,49.17Z"/></g><g class="cls-7"><path class="cls-6" d="M258.23,138.46a.31.31,0,0,1-.09-.37.19.19,0,0,1,.3-.06.31.31,0,0,1,.1.37A.19.19,0,0,1,258.23,138.46Z"/><path class="cls-6" d="M255.33,145.24a.2.2,0,0,1-.06-.24.13.13,0,0,1,.2-.05.2.2,0,0,1,.06.25A.12.12,0,0,1,255.33,145.24Z"/><path class="cls-6" d="M244.76,159.23a.37.37,0,0,1-.42.4.53.53,0,0,1-.39-.55.38.38,0,0,1,.42-.4A.54.54,0,0,1,244.76,159.23Z"/><path class="cls-6" d="M257,160.77a.25.25,0,0,1-.28.27.36.36,0,0,1-.26-.37.25.25,0,0,1,.28-.27A.36.36,0,0,1,257,160.77Z"/><path class="cls-6" d="M255.1,108.44a.29.29,0,0,1-.46,0,.43.43,0,0,1,0-.54.29.29,0,0,1,.46,0A.45.45,0,0,1,255.1,108.44Z"/><path class="cls-6" d="M205.3,134.93a.55.55,0,0,1,.07.68.36.36,0,0,1-.57,0,.56.56,0,0,1-.07-.69A.36.36,0,0,1,205.3,134.93Z"/></g><g class="cls-7"><path class="cls-6" d="M484.87,169.29a.24.24,0,0,1,.27-.22.27.27,0,0,1,.15.32c0,.16-.16.25-.27.23A.27.27,0,0,1,484.87,169.29Z"/><path class="cls-6" d="M478.56,168.14c0-.1.1-.17.18-.15a.18.18,0,0,1,.1.22c0,.1-.1.17-.18.15A.18.18,0,0,1,478.56,168.14Z"/><path class="cls-6" d="M464.1,160.58c-.21.07-.41-.09-.45-.36a.59.59,0,0,1,.32-.62c.21-.07.41.09.45.36A.59.59,0,0,1,464.1,160.58Z"/><path class="cls-6" d="M507.78,156.3a.42.42,0,0,1-.13-.52c.08-.21.27-.31.42-.22a.42.42,0,0,1,.13.52C508.12,156.29,507.94,156.39,507.78,156.3Z"/><path class="cls-6" d="M309.36,37.78c-.09.26-.32.39-.52.29a.54.54,0,0,1-.18-.65c.1-.26.33-.39.52-.29A.51.51,0,0,1,309.36,37.78Z"/></g><path class="cls-6" d="M232.65,90.28c.19-.52.66-.72,1-.47a1.25,1.25,0,0,1,.34,1.41c-.2.51-.66.71-1,.46A1.24,1.24,0,0,1,232.65,90.28Z"/><path class="cls-6" d="M287.76,90.89c-.27,0-.48-.3-.48-.67s.23-.65.49-.64.49.3.48.66S288,90.89,287.76,90.89Z"/><path class="cls-6" d="M235.8,111.54c-.18,0-.32-.2-.32-.44a.39.39,0,0,1,.33-.43c.18,0,.32.2.32.44S236,111.55,235.8,111.54Z"/><path class="cls-6" d="M298.2,13.44c.26-.69.88-1,1.4-.62a1.66,1.66,0,0,1,.45,1.88c-.25.69-.88,1-1.39.62A1.66,1.66,0,0,1,298.2,13.44Z"/><path class="cls-6" d="M345.52,114.79c.17-.46.59-.65.93-.41a1.1,1.1,0,0,1,.3,1.25c-.17.46-.59.65-.93.41A1.09,1.09,0,0,1,345.52,114.79Z"/><path class="cls-6" d="M398.89,171.9c-.2,0-.36-.22-.36-.49s.17-.49.37-.48.35.22.35.49S399.09,171.9,398.89,171.9Z"/><path class="cls-6" d="M376.64,91c-.38,0-.68-.43-.68-.94s.32-.93.7-.93a.85.85,0,0,1,.68.95C377.34,90.62,377,91,376.64,91Z"/><path class="cls-6" d="M504.08,118.69a.68.68,0,0,1-.07-.77.34.34,0,0,1,.57-.1.69.69,0,0,1,.07.78A.34.34,0,0,1,504.08,118.69Z"/><path class="cls-6" d="M442.9,227.12c-.2,0-.36-.22-.35-.49s.16-.48.36-.48.36.22.36.49S443.1,227.13,442.9,227.12Z"/><path class="cls-6" d="M425.94,141.49c-.38,0-.69-.43-.68-.94s.32-.93.7-.92.69.43.68.94S426.32,141.5,425.94,141.49Z"/><path class="cls-6" d="M548.09,173.91a.69.69,0,0,1-.07-.77.35.35,0,0,1,.58-.1.69.69,0,0,1,.07.78A.35.35,0,0,1,548.09,173.91Z"/></g><g class="cls-7"><ellipse class="cls-6" cx="151.73" cy="35.98" rx="0.49" ry="0.65"/><ellipse class="cls-6" cx="166.45" cy="34.89" rx="0.32" ry="0.44"/><path class="cls-6" d="M158.25,111.66c.24-.16.53,0,.65.3a.77.77,0,0,1-.22.88c-.24.16-.53,0-.65-.3A.77.77,0,0,1,158.25,111.66Z"/><path class="cls-6" d="M169.71,52.18c.16-.11.36,0,.44.2A.51.51,0,0,1,170,53c-.16.11-.36,0-.43-.2A.5.5,0,0,1,169.71,52.18Z"/><path class="cls-6" d="M102.11,100.45a1,1,0,0,1,.55,1.11c-.08.51-.45.84-.82.74a1,1,0,0,1-.55-1.1C101.36,100.69,101.73,100.35,102.11,100.45Z"/><g class="cls-7"><path class="cls-6" d="M14.8,76.53c0,.15-.1.28-.21.28s-.21-.13-.21-.28.09-.29.21-.29S14.8,76.37,14.8,76.53Z"/><path class="cls-6" d="M23.42,63.69a.17.17,0,0,1-.14.19c-.08,0-.14-.08-.14-.19s.06-.19.14-.19S23.42,63.59,23.42,63.69Z"/><path class="cls-6" d="M25.5,91a.2.2,0,0,1,.29.13.35.35,0,0,1-.1.38c-.11.07-.23,0-.28-.13A.34.34,0,0,1,25.5,91Z"/><path class="cls-6" d="M45.73,67.64a.13.13,0,0,1,.19.09.21.21,0,0,1-.06.25.12.12,0,0,1-.19-.08A.24.24,0,0,1,45.73,67.64Z"/><path class="cls-6" d="M.36,90.1a.42.42,0,0,1,.24.48c0,.22-.19.37-.36.32A.41.41,0,0,1,0,90.42C0,90.2.2,90.06.36,90.1Z"/></g><g class="cls-7"><path class="cls-6" d="M141.71,78.24a.3.3,0,0,1,.17-.33c.12,0,.22.08.24.24s-.05.3-.17.32S141.73,78.4,141.71,78.24Z"/><path class="cls-6" d="M135.53,80.16a.2.2,0,0,1,.12-.22c.07,0,.15,0,.16.15s0,.21-.12.22S135.54,80.26,135.53,80.16Z"/><path class="cls-6" d="M119.74,80c-.17.17-.4.11-.53-.12a.64.64,0,0,1,.09-.71.32.32,0,0,1,.53.11A.65.65,0,0,1,119.74,80Z"/><path class="cls-6" d="M143.83,58.74a.21.21,0,0,1-.35-.08.42.42,0,0,1,.05-.48.22.22,0,0,1,.36.08A.44.44,0,0,1,143.83,58.74Z"/><path class="cls-6" d="M154.23,61.56c-.17,0-.3-.19-.3-.42s.14-.41.31-.4.3.19.3.42S154.39,61.56,154.23,61.56Z"/><ellipse class="cls-6" cx="102.52" cy="55.14" rx="0.38" ry="0.52"/><path class="cls-6" d="M89.16,90.68c0,.57-.34,1-.76,1s-.77-.46-.77-1,.34-1,.77-1S89.16,90.11,89.16,90.68Z"/></g><g class="cls-7"><path class="cls-6" d="M443.86,62.49a.37.37,0,0,1-.16.43c-.13.06-.28,0-.32-.21a.39.39,0,0,1,.16-.44C443.67,62.21,443.82,62.31,443.86,62.49Z"/><path class="cls-6" d="M450.14,43.35a.25.25,0,0,1-.11.29c-.09,0-.19,0-.22-.15a.25.25,0,0,1,.11-.29C450,43.16,450.11,43.23,450.14,43.35Z"/><path class="cls-6" d="M460.22,73.64a.21.21,0,0,1,.36,0,.42.42,0,0,1,0,.48.21.21,0,0,1-.36,0A.44.44,0,0,1,460.22,73.64Z"/><path class="cls-6" d="M476.85,36.44a.15.15,0,0,1,.24,0,.29.29,0,0,1,0,.32.14.14,0,0,1-.24,0A.29.29,0,0,1,476.85,36.44Z"/><path class="cls-6" d="M431.12,85.46c.2,0,.39.15.41.43a.48.48,0,0,1-.32.55c-.2,0-.38-.16-.41-.43A.49.49,0,0,1,431.12,85.46Z"/></g><g class="cls-7"><path class="cls-6" d="M518,69.71a.46.46,0,0,1,0,.49.22.22,0,0,1-.37,0,.42.42,0,0,1,0-.48A.21.21,0,0,1,518,69.71Z"/><path class="cls-6" d="M517,48.82a.29.29,0,0,1,0,.33.14.14,0,0,1-.24,0,.27.27,0,0,1,0-.32A.14.14,0,0,1,517,48.82Z"/><path class="cls-6" d="M536.29,69.44c0-.18.19-.28.32-.22a.39.39,0,0,1,.16.44c0,.18-.18.28-.32.22A.4.4,0,0,1,536.29,69.44Z"/><path class="cls-6" d="M538.35,26.09c0-.12.13-.18.22-.14a.25.25,0,0,1,.11.29c0,.12-.13.18-.22.14A.27.27,0,0,1,538.35,26.09Z"/><path class="cls-6" d="M514.49,98a.32.32,0,0,1,.51.13.62.62,0,0,1-.1.69.31.31,0,0,1-.51-.13A.62.62,0,0,1,514.49,98Z"/></g><g class="cls-7"><path class="cls-6" d="M302.65,84.89a.27.27,0,0,1-.4.06.35.35,0,0,1,0-.44.27.27,0,0,1,.4-.06A.33.33,0,0,1,302.65,84.89Z"/><path class="cls-6" d="M319.64,81.44a.19.19,0,0,1-.27,0,.23.23,0,0,1,0-.29.17.17,0,0,1,.26,0A.21.21,0,0,1,319.64,81.44Z"/><path class="cls-6" d="M303.06,107.36a.29.29,0,0,1,.19.37.31.31,0,0,1-.36.24.29.29,0,0,1-.18-.37A.31.31,0,0,1,303.06,107.36Z"/><path class="cls-6" d="M338.36,105.19a.19.19,0,0,1,.12.25.21.21,0,0,1-.23.16.19.19,0,0,1-.12-.25A.2.2,0,0,1,338.36,105.19Z"/><path class="cls-6" d="M279.58,83.7a.51.51,0,0,1-.1.64.36.36,0,0,1-.56,0,.51.51,0,0,1,.1-.64A.36.36,0,0,1,279.58,83.7Z"/></g><g class="cls-7"><path class="cls-6" d="M384.45,106a.42.42,0,0,1,0,.48.21.21,0,0,1-.36,0,.44.44,0,0,1,0-.49A.21.21,0,0,1,384.45,106Z"/><path class="cls-6" d="M383.49,85.1a.27.27,0,0,1,0,.32.14.14,0,0,1-.24,0,.3.3,0,0,1,0-.33A.14.14,0,0,1,383.49,85.1Z"/><path class="cls-6" d="M403.63,100.68c0-.18.18-.28.32-.22a.38.38,0,0,1,.16.43c0,.19-.19.28-.32.22A.36.36,0,0,1,403.63,100.68Z"/><path class="cls-6" d="M404.85,62.37c0-.12.12-.19.21-.15a.25.25,0,0,1,.11.29c0,.12-.13.19-.22.15A.26.26,0,0,1,404.85,62.37Z"/><path class="cls-6" d="M388.58,125.22a.31.31,0,0,1,.51.13.6.6,0,0,1-.09.69.32.32,0,0,1-.51-.13A.63.63,0,0,1,388.58,125.22Z"/></g><g class="cls-7"><path class="cls-6" d="M335.43,53.86a.29.29,0,0,1-.17.33c-.11,0-.22-.08-.24-.24a.3.3,0,0,1,.17-.33C335.31,53.6,335.41,53.7,335.43,53.86Z"/><path class="cls-6" d="M341.61,51.94a.21.21,0,0,1-.11.22c-.08,0-.15,0-.17-.16a.2.2,0,0,1,.12-.22C341.53,51.77,341.6,51.84,341.61,51.94Z"/><path class="cls-6" d="M357.4,52.07a.32.32,0,0,1,.53.11.65.65,0,0,1-.09.72.33.33,0,0,1-.53-.12A.63.63,0,0,1,357.4,52.07Z"/><path class="cls-6" d="M350.21,40.11a.22.22,0,0,1,.36.07.44.44,0,0,1-.06.48.21.21,0,0,1-.35-.08A.4.4,0,0,1,350.21,40.11Z"/><path class="cls-6" d="M318.69,76.58a.39.39,0,0,1,.3.42c0,.23-.15.41-.31.4s-.3-.19-.3-.42A.37.37,0,0,1,318.69,76.58Z"/><path class="cls-6" d="M368.36,103.39a.47.47,0,0,1,.39-.51c.21,0,.38.23.38.51s-.17.52-.38.52S368.36,103.68,368.36,103.39Z"/><path class="cls-6" d="M388,41.41c0-.56.34-1,.77-1s.76.47.76,1-.34,1-.76,1S388,42,388,41.41Z"/></g><g class="cls-7"><path class="cls-6" d="M112,168.51c0-.15.16-.25.27-.22a.28.28,0,0,1,.15.33c0,.15-.16.25-.27.22A.27.27,0,0,1,112,168.51Z"/><path class="cls-6" d="M105.7,167.36c0-.1.1-.16.18-.14s.12.11.1.21-.1.17-.18.15A.18.18,0,0,1,105.7,167.36Z"/><path class="cls-6" d="M91.24,159.8c-.21.08-.41-.08-.45-.35a.59.59,0,0,1,.32-.62c.21-.07.41.09.45.36A.57.57,0,0,1,91.24,159.8Z"/><path class="cls-6" d="M93.88,174.18c-.14,0-.27-.06-.3-.24a.39.39,0,0,1,.21-.41.24.24,0,0,1,.3.23A.39.39,0,0,1,93.88,174.18Z"/><path class="cls-6" d="M134.93,155.53a.43.43,0,0,1-.14-.53.32.32,0,0,1,.42-.22.44.44,0,0,1,.13.53C135.26,155.51,135.08,155.61,134.93,155.53Z"/><path class="cls-6" d="M98.18,107.49c-.09.26-.33.39-.52.29a.54.54,0,0,1-.18-.65c.09-.26.33-.39.52-.29A.52.52,0,0,1,98.18,107.49Z"/></g><g class="cls-7"><path class="cls-6" d="M344.06,160.19c.06-.34.25-.57.44-.5s.29.4.24.74-.25.57-.44.5S344,160.53,344.06,160.19Z"/><path class="cls-6" d="M333.71,157.58c0-.23.17-.38.3-.33s.19.26.16.49-.17.38-.3.34S333.68,157.81,333.71,157.58Z"/><path class="cls-6" d="M310,140.45c-.34.16-.67-.2-.73-.81a1.48,1.48,0,0,1,.51-1.4c.35-.16.68.2.74.81A1.45,1.45,0,0,1,310,140.45Z"/><path class="cls-6" d="M314.33,173c-.23.1-.45-.14-.49-.54a1,1,0,0,1,.34-.93c.23-.11.45.13.49.53A1,1,0,0,1,314.33,173Z"/><path class="cls-6" d="M416.63,147.61a1.2,1.2,0,0,1-.21-1.18c.12-.47.43-.7.68-.5a1.2,1.2,0,0,1,.22,1.18C417.19,147.58,416.88,147.81,416.63,147.61Z"/><path class="cls-6" d="M321.38,21.88c-.16.59-.54.89-.86.67a1.51,1.51,0,0,1-.29-1.48c.15-.6.54-.89.85-.67A1.51,1.51,0,0,1,321.38,21.88Z"/></g><g class="cls-7"><path class="cls-6" d="M232.52,111.17a.31.31,0,0,1-.09-.37.19.19,0,0,1,.3-.06.31.31,0,0,1,.1.37A.19.19,0,0,1,232.52,111.17Z"/><path class="cls-6" d="M229.62,118a.21.21,0,0,1-.06-.25.13.13,0,0,1,.2,0,.2.2,0,0,1,.06.25A.12.12,0,0,1,229.62,118Z"/><path class="cls-6" d="M219.05,131.94a.38.38,0,0,1-.42.4.53.53,0,0,1-.39-.55.38.38,0,0,1,.42-.4A.53.53,0,0,1,219.05,131.94Z"/><path class="cls-6" d="M231.32,133.48a.24.24,0,0,1-.28.26.35.35,0,0,1-.26-.36c0-.18.13-.3.28-.27A.35.35,0,0,1,231.32,133.48Z"/><path class="cls-6" d="M229.39,81.15a.29.29,0,0,1-.46,0,.44.44,0,0,1,0-.55.29.29,0,0,1,.46,0A.45.45,0,0,1,229.39,81.15Z"/><path class="cls-6" d="M179.59,107.63a.56.56,0,0,1,.07.69.36.36,0,0,1-.57,0,.55.55,0,0,1-.07-.68A.36.36,0,0,1,179.59,107.63Z"/></g><g class="cls-7"><path class="cls-6" d="M459.16,142c0-.16.15-.26.27-.23a.26.26,0,0,1,.14.33c0,.15-.15.25-.26.22A.26.26,0,0,1,459.16,142Z"/><path class="cls-6" d="M452.85,140.85c0-.11.1-.17.18-.15a.18.18,0,0,1,.1.22.16.16,0,0,1-.18.14A.17.17,0,0,1,452.85,140.85Z"/><path class="cls-6" d="M438.39,133.29c-.21.07-.41-.09-.45-.36a.59.59,0,0,1,.32-.62c.21-.07.41.09.45.36A.59.59,0,0,1,438.39,133.29Z"/><path class="cls-6" d="M482.07,129a.44.44,0,0,1-.13-.53.32.32,0,0,1,.42-.22.44.44,0,0,1,.13.53C482.41,129,482.23,129.09,482.07,129Z"/><path class="cls-6" d="M445.33,81c-.09.26-.33.39-.52.29a.52.52,0,0,1-.18-.65c.09-.26.33-.39.52-.29A.54.54,0,0,1,445.33,81Z"/></g><path class="cls-6" d="M206.94,63c.19-.51.65-.72,1-.46a1.24,1.24,0,0,1,.34,1.4c-.2.52-.66.72-1,.46A1.24,1.24,0,0,1,206.94,63Z"/><path class="cls-6" d="M262.05,63.6c-.27,0-.48-.31-.48-.67s.23-.65.49-.64.49.3.48.66S262.32,63.6,262.05,63.6Z"/><path class="cls-6" d="M210.09,84.25c-.18,0-.32-.2-.32-.44a.39.39,0,0,1,.33-.43c.17,0,.32.2.32.44S210.27,84.25,210.09,84.25Z"/><path class="cls-6" d="M437.16,89.4c.25-.69.88-1,1.39-.62a1.66,1.66,0,0,1,.46,1.88c-.26.69-.88,1-1.4.62A1.66,1.66,0,0,1,437.16,89.4Z"/><path class="cls-6" d="M319.81,87.5c.17-.46.58-.65.93-.42a1.12,1.12,0,0,1,.3,1.26c-.17.46-.59.64-.93.41A1.09,1.09,0,0,1,319.81,87.5Z"/><path class="cls-6" d="M373.18,144.61a.45.45,0,0,1-.36-.49c0-.27.17-.49.37-.49s.35.23.35.5S373.38,144.61,373.18,144.61Z"/><path class="cls-6" d="M350.93,63.73c-.38,0-.68-.43-.68-.94a.72.72,0,1,1,1.38,0C351.63,63.32,351.32,63.74,350.93,63.73Z"/><path class="cls-6" d="M478.37,91.4a.69.69,0,0,1-.07-.78.34.34,0,0,1,.57-.09.68.68,0,0,1,.07.77A.34.34,0,0,1,478.37,91.4Z"/><path class="cls-6" d="M417.19,199.83c-.2,0-.36-.22-.35-.49s.16-.49.36-.48.36.22.36.49S417.39,199.83,417.19,199.83Z"/><path class="cls-6" d="M395,119c-.38,0-.69-.43-.69-.94s.32-.93.71-.93.68.43.68,1S395.33,119,395,119Z"/><path class="cls-6" d="M522.38,146.62a.69.69,0,0,1-.07-.78.35.35,0,0,1,.58-.09.69.69,0,0,1,.07.78A.35.35,0,0,1,522.38,146.62Z"/><ellipse class="cls-8" cx="320.77" cy="87.77" rx="9.57" ry="10.78" transform="translate(-3.73 14.97) rotate(-2.66)"/></g><path class="cls-9" d="M238.29,65.27c.05-.24.12-.54.2-.88Z"/><path class="cls-10" d="M322.73,280.39l-13,.68-1.11,3.14s-34.29,4.64-34.29,5.43-31,2.45-31,2.45l1.32,3.17,35-5.62,31.62-5.14,2.3-2.62,10-1.37Z"/><path class="cls-11" d="M164.42,294.84s-9.41,1.81-11.09,2-19.21,5.38-19.21,5.38L119,304.37s13.64-3.33,15.66-3.94,10.12-4.73,17.11-5.08S164.42,294.84,164.42,294.84Z"/><g class="cls-12"><path class="cls-13" d="M185.39,309.14c0,.32,1.76.49,3.85.38s3.77-.46,3.73-.78-1.75-.49-3.85-.38S185.36,308.82,185.39,309.14Z"/><path class="cls-14" d="M152.55,318.05c0,.44,2.42.67,5.3.52S163,318,163,317.51s-2.41-.68-5.3-.53S152.5,317.61,152.55,318.05Z"/><path class="cls-15" d="M163.31,311.12c0,.24,1.32.37,2.89.29s2.82-.34,2.79-.58-1.31-.37-2.88-.29S163.29,310.88,163.31,311.12Z"/><path class="cls-16" d="M143.1,319c0,.24,1.32.37,2.89.29s2.82-.34,2.79-.58-1.32-.37-2.88-.29S143.08,318.8,143.1,319Z"/><path class="cls-17" d="M102.59,314.27c0,.24,1.31.37,2.88.29s2.82-.35,2.8-.58-1.32-.37-2.89-.29S102.56,314,102.59,314.27Z"/><path class="cls-18" d="M249,293.43c0,.31,1.75.49,3.85.38s3.76-.46,3.73-.78-1.76-.49-3.85-.38S248.93,293.11,249,293.43Z"/><path class="cls-19" d="M177.47,303.81c.05.44,2.42.68,5.31.53s5.18-.63,5.13-1.07-2.42-.68-5.3-.53S177.43,303.37,177.47,303.81Z"/><path class="cls-20" d="M230.14,295.09c0,.24,1.32.37,2.89.29s2.82-.34,2.79-.58-1.31-.37-2.88-.29S230.12,294.85,230.14,295.09Z"/><path class="cls-21" d="M156.8,308.66c0,.24,1.32.37,2.89.29s2.82-.34,2.79-.58-1.32-.37-2.88-.29S156.78,308.42,156.8,308.66Z"/><path class="cls-22" d="M154.61,324.63c0,.23,1.31.36,2.88.28s2.82-.34,2.8-.58S159,324,157.4,324,154.58,324.39,154.61,324.63Z"/><path class="cls-23" d="M119.28,306.5c0,.34,1.78.67,4,.73s4.06-.16,4.08-.51-1.78-.66-4-.73S119.3,306.16,119.28,306.5Z"/><path class="cls-24" d="M83,313.16c0,.47,2.45.92,5.53,1s5.59-.23,5.62-.7-2.45-.92-5.53-1S83,312.69,83,313.16Z"/><path class="cls-25" d="M95.54,306.73c0,.26,1.34.5,3,.55s3-.12,3.06-.38-1.33-.5-3-.55S95.56,306.48,95.54,306.73Z"/><path class="cls-26" d="M72.79,313.42c0,.25,1.33.5,3,.55s3-.13,3.06-.38-1.34-.5-3-.55S72.8,313.16,72.79,313.42Z"/><path class="cls-27" d="M30.66,304.93c0,.25,1.33.5,3,.55s3-.13,3.06-.38-1.34-.5-3-.55S30.67,304.67,30.66,304.93Z"/></g><g class="cls-12"><path class="cls-28" d="M334.72,304.44c0,.17.92.26,2,.2s2-.24,1.95-.41-.92-.25-2-.2S334.7,304.27,334.72,304.44Z"/><path class="cls-29" d="M317.51,309.11c0,.23,1.26.35,2.77.27s2.72-.33,2.7-.56-1.27-.35-2.78-.27S317.48,308.88,317.51,309.11Z"/><path class="cls-30" d="M323.15,305.48c0,.12.69.19,1.51.15s1.48-.18,1.46-.31-.69-.19-1.51-.15S323.13,305.35,323.15,305.48Z"/><path class="cls-31" d="M312.56,309.63c0,.13.69.19,1.51.15s1.48-.18,1.46-.3-.69-.2-1.51-.15S312.54,309.5,312.56,309.63Z"/><path class="cls-32" d="M291.32,307.05c0,.13.69.23,1.51.23s1.48-.11,1.47-.23-.68-.23-1.5-.23S291.32,306.93,291.32,307.05Z"/><path class="cls-33" d="M368,296.21c0,.16.92.25,2,.2s2-.24,1.95-.41-.92-.26-2-.2S368,296,368,296.21Z"/><path class="cls-34" d="M340.43,301.85c0,.23,1.26.35,2.77.28s2.72-.33,2.7-.56-1.27-.36-2.78-.28S340.4,301.62,340.43,301.85Z"/><path class="cls-35" d="M358.17,297.08c0,.12.69.19,1.51.15s1.48-.18,1.46-.31-.68-.19-1.51-.15S358.16,297,358.17,297.08Z"/><path class="cls-36" d="M319.74,304.19c0,.13.69.19,1.51.15s1.47-.18,1.46-.3-.69-.2-1.51-.15S319.72,304.06,319.74,304.19Z"/><path class="cls-37" d="M318.59,312.55c0,.13.69.2,1.51.15s1.48-.17,1.46-.3-.69-.19-1.51-.15S318.57,312.43,318.59,312.55Z"/><path class="cls-38" d="M300.07,303.11c0,.18.94.33,2.11.33s2.13-.14,2.14-.32-.94-.33-2.11-.33S300.08,302.93,300.07,303.11Z"/><path class="cls-39" d="M281.05,306.55c0,.24,1.28.48,2.89.52s2.94-.11,2.95-.36-1.28-.48-2.9-.53S281.06,306.3,281.05,306.55Z"/><path class="cls-40" d="M287.64,303.18c0,.13.69.26,1.57.29s1.6-.07,1.61-.2-.7-.26-1.58-.29S287.64,303,287.64,303.18Z"/><path class="cls-41" d="M277.08,307.65c0,.13.7.26,1.57.28s1.6-.06,1.61-.2-.7-.26-1.58-.28S277.09,307.51,277.08,307.65Z"/></g><g class="cls-12"><path class="cls-42" d="M445.59,292.08c0,.13-.7.2-1.54.15s-1.5-.18-1.48-.31.7-.19,1.53-.15S445.6,292,445.59,292.08Z"/><path class="cls-43" d="M458.67,295.63c0,.18-1,.27-2.11.21s-2.06-.25-2-.43,1-.26,2.11-.2S458.69,295.45,458.67,295.63Z"/><path class="cls-44" d="M454.39,292.87c0,.1-.53.15-1.15.12s-1.13-.14-1.12-.24.53-.14,1.15-.11S454.39,292.78,454.39,292.87Z"/><path class="cls-45" d="M462.44,296c0,.09-.53.14-1.15.11s-1.12-.13-1.11-.23.52-.15,1.14-.11S462.45,295.93,462.44,296Z"/><path class="cls-46" d="M478.58,294.13c0,.09-.52.14-1.15.11s-1.12-.14-1.11-.23.52-.15,1.15-.12S478.59,294,478.58,294.13Z"/><path class="cls-47" d="M420.26,285.82c0,.13-.7.2-1.54.15s-1.5-.18-1.48-.31.7-.19,1.53-.15S420.27,285.69,420.26,285.82Z"/><path class="cls-48" d="M441.25,290.11c0,.18-1,.27-2.11.21s-2.07-.25-2.05-.42,1-.27,2.11-.21S441.27,289.94,441.25,290.11Z"/><path class="cls-49" d="M427.76,286.48c0,.1-.53.15-1.15.12s-1.13-.14-1.12-.23.53-.15,1.15-.12S427.77,286.39,427.76,286.48Z"/><path class="cls-50" d="M457,291.89c0,.1-.53.15-1.15.12s-1.12-.14-1.11-.24.52-.14,1.15-.11S457,291.8,457,291.89Z"/><path class="cls-51" d="M457.85,298.25c0,.1-.52.15-1.15.12s-1.12-.14-1.11-.24.52-.14,1.15-.11S457.86,298.16,457.85,298.25Z"/><path class="cls-52" d="M471.93,291c0,.14-.71.27-1.6.29s-1.62-.07-1.63-.2.71-.27,1.6-.29S471.92,290.89,471.93,291Z"/><path class="cls-53" d="M486.4,293.68c0,.19-1,.37-2.21.4S482,294,482,293.81s1-.37,2.21-.4S486.39,293.5,486.4,293.68Z"/><path class="cls-54" d="M481.39,291.12c0,.1-.53.2-1.2.22s-1.22,0-1.22-.15.53-.2,1.2-.22S481.38,291,481.39,291.12Z"/><path class="cls-55" d="M490.45,293.79c0,.1-.53.2-1.2.21s-1.21,0-1.21-.15.53-.2,1.19-.21S490.45,293.68,490.45,293.79Z"/><path class="cls-56" d="M507.24,290.4c0,.11-.53.2-1.2.22s-1.21-.05-1.22-.15.53-.2,1.2-.22S507.23,290.3,507.24,290.4Z"/></g><g class="cls-12"><path class="cls-57" d="M413,331.62c0,.37-2,.57-4.48.44s-4.38-.53-4.34-.9,2-.57,4.48-.45S413,331.24,413,331.62Z"/><path class="cls-58" d="M451.17,342c-.05.51-2.81.79-6.17.62s-6-.73-6-1.25,2.81-.78,6.16-.61S451.22,341.47,451.17,342Z"/><path class="cls-59" d="M438.64,333.93c0,.27-1.53.42-3.35.33s-3.28-.4-3.25-.68,1.53-.42,3.35-.33S438.67,333.65,438.64,333.93Z"/><path class="cls-60" d="M462.16,343.14c0,.28-1.53.43-3.35.34s-3.29-.4-3.26-.68,1.53-.43,3.36-.33S462.19,342.87,462.16,343.14Z"/><path class="cls-61" d="M509.3,337.59c0,.28-1.53.43-3.35.33s-3.28-.4-3.25-.67,1.53-.43,3.35-.34S509.33,337.31,509.3,337.59Z"/><path class="cls-62" d="M339,313.33c0,.38-2.05.57-4.48.45s-4.38-.53-4.34-.9,2-.57,4.48-.45S339,313,339,313.33Z"/><path class="cls-63" d="M402,322.78c-.06.51-2.82.79-6.17.61s-6-.72-6-1.24,2.81-.78,6.17-.61S402,322.27,402,322.78Z"/><path class="cls-64" d="M360.88,315.27c0,.28-1.53.43-3.36.33s-3.28-.39-3.25-.67,1.53-.43,3.36-.33S360.91,315,360.88,315.27Z"/><path class="cls-65" d="M446.22,331.07c0,.27-1.53.42-3.36.33s-3.28-.4-3.25-.68,1.53-.42,3.36-.33S446.25,330.79,446.22,331.07Z"/><path class="cls-66" d="M448.77,349.64c0,.28-1.53.43-3.35.33s-3.28-.4-3.26-.67,1.54-.43,3.36-.34S448.8,349.36,448.77,349.64Z"/><path class="cls-67" d="M489.88,328.55c0,.39-2.07.77-4.67.85s-4.73-.19-4.75-.59,2.06-.78,4.67-.85S489.86,328.15,489.88,328.55Z"/><path class="cls-68" d="M532.13,336.3c0,.54-2.85,1.07-6.43,1.17s-6.51-.26-6.54-.81,2.85-1.07,6.43-1.17S532.1,335.75,532.13,336.3Z"/><path class="cls-69" d="M517.5,328.82c0,.3-1.55.58-3.5.64s-3.55-.15-3.56-.44,1.55-.59,3.5-.64S517.48,328.52,517.5,328.82Z"/><path class="cls-70" d="M544,336.6c0,.3-1.55.58-3.5.63s-3.55-.14-3.56-.44,1.55-.58,3.5-.63S544,336.3,544,336.6Z"/><path class="cls-71" d="M593,326.72c0,.3-1.55.58-3.5.64s-3.54-.15-3.56-.44,1.55-.59,3.5-.64S593,326.42,593,326.72Z"/></g><polygon class="cls-72" points="322.99 316.96 314.61 319.7 330.81 317.81 322.99 316.96"/><polygon class="cls-73" points="158.22 284.97 155.63 285.69 155.63 283.31 156.06 282.79 157.97 284.97 158.22 284.97"/><path class="cls-3" d="M285.61,244.31c-.88.35-.35,3.47.48,2.92s.18-.55.18-1.34S287.59,243.51,285.61,244.31Z"/><path class="cls-3" d="M302,227.79c-.66.79.66.79.66.79s.66-1.58,0-1.58S302,227.79,302,227.79Z"/><path class="cls-4" d="M436,234.61c.24.48.23,1,0,1.19s-.64-.09-.87-.58-.23-1,0-1.19S435.72,234.12,436,234.61Z"/><path class="cls-4" d="M438,253.65a.36.36,0,0,1-.33.39.36.36,0,0,1-.33-.39.37.37,0,0,1,.33-.4A.37.37,0,0,1,438,253.65Z"/><path class="cls-4" d="M440,246.92a.67.67,0,1,1-1.32,0,.67.67,0,1,1,1.32,0Z"/><path class="cls-4" d="M434.67,248.51c0,.87-.44,1.58-1,1.58s-1-.71-1-1.58.44-1.59,1-1.59S434.67,247.63,434.67,248.51Z"/><path class="cls-4" d="M436,250.48a.37.37,0,0,1-.33.4.4.4,0,0,1,0-.79A.36.36,0,0,1,436,250.48Z"/><path class="cls-4" d="M431.39,262.17c.27-.28.63-.31.8-.06a.77.77,0,0,1-.17.94c-.27.28-.63.31-.81.07A.81.81,0,0,1,431.39,262.17Z"/><path class="cls-4" d="M431.58,261a.15.15,0,0,1,.23,0,.22.22,0,0,1,0,.28.15.15,0,0,1-.23,0A.23.23,0,0,1,431.58,261Z"/></g></g></g></svg>