<?xml version="1.0" encoding="utf-8"?>
<!-- Generator: Adobe Illustrator 23.0.3, SVG Export Plug-In . SVG Version: 6.00 Build 0)  -->
<svg version="1.1" id="Layer_1" xmlns="http://www.w3.org/2000/svg" xmlns:xlink="http://www.w3.org/1999/xlink" x="0px" y="0px"
	 viewBox="0 0 289.44 120.96" style="enable-background:new 0 0 289.44 120.96;" xml:space="preserve">
<style type="text/css">
	.st0{fill:#3310C6;}
</style>
<path d="M670.82,310.24c0.49,1.5,0.83,2.56,1.38,4.26c1.38-1.29,2.51-2.36,3.73-3.51c0.13,1.57,0.26,3.07,0.4,4.67
	C673.48,314.89,669.75,315.49,670.82,310.24z"/>
<path class="st0" d="M57.19,81.92l41.76,0c0.95,0,1.72-0.77,1.72-1.72v-7.91c0-1.34-1.47-2.16-2.61-1.46
	c-4.07,2.5-8.54,3.06-13.5,2.79c-1.64-0.09-2.22-2.22-0.87-3.14c7.71-5.26,15.09-10.3,22.68-15.49c1.13-0.77,2.66,0.03,2.67,1.4l0,0
	c0.02,10.16-0.05,20.33,0.07,30.49c0.03,2.47-0.69,3.31-3.21,3.29c-18.43-0.08-36.86-0.07-55.29,0c-2.41,0.01-3.43-0.62-3.3-3.2
	c0.23-4.34-1.14-9.36,0.62-12.85c1.69-3.34,6.47-5.16,9.96-7.54c13.54-9.25,27.07-18.51,40.7-27.64c1.77-1.19,2.6-2.45,2.46-4.3
	c-0.07-0.88-0.83-1.54-1.71-1.54l-41.97,0c-0.95,0-1.72,0.77-1.72,1.72v8.69c0,1.34,1.48,2.17,2.62,1.46
	c2.5-1.54,4.94-3.13,7.61-3.8c2.34-0.59,4.86-0.5,7.45-0.15c1.56,0.21,2.03,2.24,0.73,3.12c-8.63,5.88-17.3,11.78-26.25,17.88
	c-0.21-1.14-0.44-1.84-0.45-2.54C47.34,49,47.4,38.5,47.31,28c-0.02-2.22,0.54-3.17,2.97-3.16c18.88,0.08,37.75,0.05,56.63,0.07
	c0.21,0,0.41,0.02,0.64,0.04c0.87,0.1,1.53,0.83,1.54,1.71c0.02,4.67,0.09,9.35-0.12,14.03c-0.04,0.86-1.51,1.78-2.48,2.45
	C90.38,54.17,74.27,65.2,58.09,76.13c-1.74,1.17-2.86,2.36-2.6,4.36C55.6,81.32,56.35,81.92,57.19,81.92z"/>
<g>
	<path class="st0" d="M123.9,70.71c-1.64,0-2.93,1.46-2.66,3.08c0.53,3.13,1.83,5.63,3.93,7.52c2.41,2.14,5.56,3.2,9.45,3.2
		c3.04,0,5.83-0.37,8.39-1.12c1.45-0.43,2.96,0.5,3.31,1.97v0c0.32,1.34-0.41,2.72-1.71,3.16c-3.25,1.11-6.91,1.66-10.97,1.66
		c-6.02,0-10.82-1.86-14.37-5.59c-3.45-3.61-5.17-8.46-5.17-14.54c0-6.13,1.67-11.2,5.01-15.2c3.45-4.16,7.99-6.24,13.64-6.24
		c5.8,0,10.16,2.22,13.06,6.65c2.24,3.34,3.37,7.37,3.37,12.07c0,0.23-0.01,0.5-0.02,0.79c-0.07,1.44-1.25,2.57-2.68,2.57
		L123.9,70.71z M139.3,65.54c1.63,0,2.93-1.45,2.66-3.06c-0.28-1.69-0.84-3.22-1.68-4.58c-1.81-2.74-4.52-4.11-8.13-4.11
		c-3.34,0-6.02,1.34-8.05,4.03c-0.98,1.23-1.73,2.61-2.26,4.14c-0.6,1.75,0.69,3.58,2.54,3.58H139.3z"/>
	<path class="st0" d="M189.84,30.95c1.48,0,2.69,1.2,2.69,2.69v45.37c0,2.93,0.05,5.42,0.14,7.47c0.07,1.53-1.16,2.8-2.68,2.8
		l-1.06,0c-1.43,0-2.61-1.13-2.68-2.56l-0.21-4.34h-0.17c-2.63,5.2-7.15,7.8-13.55,7.8c-4.88,0-8.93-1.86-12.16-5.59
		c-3.23-3.78-4.85-8.65-4.85-14.62c-0.06-6.41,1.7-11.61,5.26-15.61c3.34-3.83,7.53-5.75,12.57-5.75c5.69,0,9.69,2.03,11.99,6.08
		h0.17V33.64c0-1.48,1.2-2.69,2.69-2.69H189.84z M185.29,65.7c0-1.2-0.11-2.22-0.33-3.04c-0.55-2.41-1.75-4.38-3.61-5.91
		c-1.92-1.64-4.19-2.46-6.82-2.46c-3.67,0-6.6,1.45-8.79,4.35c-2.08,2.85-3.12,6.52-3.12,11.01c0,4.22,0.99,7.67,2.96,10.35
		c2.08,2.9,5.01,4.35,8.79,4.35c2.46,0,4.65-0.77,6.57-2.3c2.03-1.59,3.37-3.7,4.02-6.32c0.22-0.88,0.33-1.92,0.33-3.12V65.7z"/>
	<path class="st0" d="M236.16,30.95c1.48,0,2.69,1.2,2.69,2.69v45.37c0,2.93,0.05,5.42,0.14,7.47c0.07,1.53-1.16,2.8-2.68,2.8
		l-1.06,0c-1.43,0-2.61-1.13-2.68-2.56l-0.21-4.34h-0.17c-2.63,5.2-7.15,7.8-13.55,7.8c-4.88,0-8.93-1.86-12.16-5.59
		c-3.23-3.78-4.85-8.65-4.85-14.62c-0.05-6.41,1.7-11.61,5.26-15.61c3.34-3.83,7.53-5.75,12.57-5.75c5.69,0,9.69,2.03,11.99,6.08
		h0.17V33.64c0-1.48,1.2-2.69,2.69-2.69H236.16z M231.62,65.7c0-1.2-0.11-2.22-0.33-3.04c-0.55-2.41-1.75-4.38-3.61-5.91
		c-1.92-1.64-4.19-2.46-6.82-2.46c-3.67,0-6.6,1.45-8.79,4.35c-2.08,2.85-3.12,6.52-3.12,11.01c0,4.22,0.99,7.67,2.96,10.35
		c2.08,2.9,5.01,4.35,8.79,4.35c2.46,0,4.65-0.77,6.57-2.3c2.03-1.59,3.37-3.7,4.02-6.32c0.22-0.88,0.33-1.92,0.33-3.12V65.7z"/>
	<path class="st0" d="M258.81,38.35c0.05,1.26-0.33,2.3-1.15,3.12c-0.88,0.88-2.03,1.31-3.45,1.31c-1.26,0-2.3-0.44-3.12-1.31
		c-0.82-0.82-1.23-1.86-1.23-3.12c0-1.26,0.44-2.33,1.31-3.2c0.82-0.88,1.89-1.31,3.2-1.31C257.33,33.83,258.81,35.34,258.81,38.35z
		 M250.76,86.59V52.2c0-1.48,1.2-2.69,2.69-2.69h1.86c1.48,0,2.69,1.2,2.69,2.69v34.38c0,1.48-1.2,2.69-2.69,2.69h-1.86
		C251.96,89.27,250.76,88.07,250.76,86.59z"/>
</g>
</svg>
