<?xml version="1.0" encoding="UTF-8" standalone="no"?>
<!-- Created with Inkscape (http://www.inkscape.org/) -->

<svg
   version="1.1"
   id="svg18"
   width="587.98669"
   height="192.05867"
   viewBox="0 0 587.98669 192.05867"
   sodipodi:docname="BLACK BG.ai"
   xmlns:inkscape="http://www.inkscape.org/namespaces/inkscape"
   xmlns:sodipodi="http://sodipodi.sourceforge.net/DTD/sodipodi-0.dtd"
   xmlns="http://www.w3.org/2000/svg"
   xmlns:svg="http://www.w3.org/2000/svg">
  <defs
     id="defs22">
    <clipPath
       clipPathUnits="userSpaceOnUse"
       id="clipPath34">
      <path
         d="M 0,144.044 H 440.99 V 0 H 0 Z"
         id="path32" />
    </clipPath>
  </defs>
  <sodipodi:namedview
     id="namedview20"
     pagecolor="#ffffff"
     bordercolor="#999999"
     borderopacity="1"
     inkscape:showpageshadow="0"
     inkscape:pageopacity="0"
     inkscape:pagecheckerboard="0"
     inkscape:deskcolor="#d1d1d1"
     showgrid="false" />
  <g
     id="g26"
     inkscape:groupmode="layer"
     inkscape:label="Page 1"
     transform="matrix(1.3333333,0,0,-1.3333333,0,192.05867)">
    <g
       id="g28">
      <g
         id="g30"
         clip-path="url(#clipPath34)">
        <g
           id="g36"
           transform="translate(224.4259,79.8417)">
          <path
             d="m 0,0 c 19.868,0 39.735,-0.001 59.603,0.005 0.799,0.001 1.578,-0.073 2.354,-0.275 5.07,-1.317 9.898,-3.215 14.51,-5.724 6.441,-3.504 10.737,-8.709 12.906,-15.701 0.875,-2.819 1.773,-5.63 1.95,-8.604 0.204,-3.436 -0.463,-6.697 -2.016,-9.771 -1.756,-3.471 -4.175,-6.465 -6.634,-9.451 -3.358,-4.077 -7.584,-6.759 -12.551,-8.39 -2.99,-0.983 -6.035,-1.7 -9.165,-2.042 -0.375,-0.041 -0.756,-0.032 -1.134,-0.032 -14.418,-10e-4 -28.836,-10e-4 -43.254,-10e-4 -0.151,0 -0.306,0.02 -0.453,-0.004 -0.639,-0.107 -0.751,0.222 -0.745,0.779 0.023,2.12 0.009,4.24 0.009,6.36 v 27.83 c 0,0.228 -0.004,0.455 0,0.682 0.016,0.846 0.017,0.858 0.877,0.859 5.488,0.002 10.974,0.002 16.462,0 0.976,0 0.986,-0.008 0.986,-0.989 0.003,-6.361 0,-12.722 0.003,-19.084 0.001,-1.459 -0.119,-1.251 1.292,-1.231 8.74,0.124 17.48,0.262 26.221,0.389 0.534,0.008 1.048,0.085 1.561,0.24 0.908,0.272 1.784,0.619 2.634,1.035 3.648,1.787 5.821,4.643 6.561,8.683 0.667,3.652 0.084,7.07 -1.458,10.376 -0.85,1.823 -2.129,3.293 -3.75,4.478 -2.097,1.533 -4.41,2.622 -6.873,3.418 -0.555,0.179 -1.113,0.186 -1.678,0.189 -23.083,0.186 -46.165,0.37 -69.247,0.559 -16.196,0.133 -32.391,0.275 -48.587,0.413 -0.151,0.002 -0.302,0 -0.454,0.004 -0.836,0.019 -0.847,0.019 -0.87,0.875 -0.117,4.429 -0.231,8.857 -0.339,13.285 -0.02,0.817 -0.007,0.819 0.769,0.839 0.265,0.007 0.53,0.001 0.795,0.001 z"
             style="fill:#00003e;fill-opacity:1;fill-rule:nonzero;stroke:none"
             id="path38" />
        </g>
        <g
           id="g40"
           transform="translate(113.0939,34.5331)">
          <path
             d="m 0,0 c 39.647,0.187 79.294,0.376 118.933,0.563 0.104,-0.436 -0.197,-0.614 -0.362,-0.838 -3.404,-4.636 -6.825,-9.259 -10.214,-13.906 -0.419,-0.573 -0.835,-0.818 -1.572,-0.818 -44.39,0.021 -88.778,0.02 -133.167,0.01 -0.668,0 -1.259,0.146 -1.839,0.458 -0.601,0.322 -1.185,0.668 -1.73,1.078 -2.348,1.764 -3.313,4.054 -2.642,6.965 0.059,0.258 0.119,0.515 0.17,0.775 0.424,2.181 1.443,3.863 3.256,5.325 12.223,9.861 24.352,19.838 36.51,29.779 0.285,0.232 0.56,0.478 1.075,0.92 -14.785,-0.112 -29.303,-0.417 -44.046,-0.528 0.373,0.504 0.604,0.829 0.847,1.145 3.369,4.379 6.758,8.743 10.093,13.147 0.556,0.735 1.108,1.033 2.049,1.03 12.602,-0.036 25.203,-0.024 37.805,-0.024 5.979,0 11.958,-0.008 17.937,0.011 0.703,0.002 1.331,-0.135 1.951,-0.459 1.176,-0.616 2.296,-1.31 3.343,-2.129 2.42,-1.894 3.162,-4.329 2.4,-7.267 C 40.684,34.799 40.56,34.362 40.423,33.93 39.934,32.382 39.085,31.162 37.759,30.12 25.527,20.516 13.346,10.848 1.15,1.196 0.742,0.874 0.337,0.546 -0.068,0.22 -0.046,0.146 -0.023,0.073 0,0"
             style="fill:#00003e;fill-opacity:1;fill-rule:nonzero;stroke:none"
             id="path42" />
        </g>
        <g
           id="g44"
           transform="translate(338.4405,49.8788)">
          <path
             d="m 0,0 c 0,-9.694 0.003,-19.388 -0.003,-29.082 0,-1.43 0.177,-1.238 -1.284,-1.24 -5.299,-0.008 -10.597,-0.003 -15.896,-0.003 -0.226,0 -0.455,0.014 -0.68,-0.003 -0.415,-0.031 -0.652,0.099 -0.609,0.564 0.021,0.226 0.002,0.454 0.002,0.682 0,19.388 -0.001,38.776 10e-4,58.164 0,1.454 -0.11,1.256 1.286,1.257 5.299,0.007 10.597,0.003 15.896,0.003 0.265,0 0.53,-0.009 0.795,0 0.325,0.01 0.492,-0.13 0.489,-0.464 C -0.006,29.575 0,29.271 0,28.969 Z"
             style="fill:#01fedf;fill-opacity:1;fill-rule:nonzero;stroke:none"
             id="path46" />
        </g>
        <g
           id="g48"
           transform="translate(228.2984,56.4453)"
           style="fill:#00003e;fill-opacity:1">
          <path
             d="m 0,0 c -0.019,-0.428 -0.226,-0.558 -0.362,-0.723 -3.175,-3.854 -6.367,-7.694 -9.522,-11.565 -0.452,-0.555 -0.907,-0.764 -1.622,-0.763 -17.515,0.021 -35.029,0.017 -52.544,0.017 -0.226,0 -0.453,0.006 -0.68,0.002 -0.343,-0.006 -0.456,0.176 -0.447,0.496 0.013,0.416 0.003,0.833 0.003,1.249 0,3.444 -0.005,6.889 0.002,10.333 0.003,1.22 -0.213,1.176 1.128,1.172 7.035,-0.017 14.071,-0.025 21.107,-0.05 C -29.016,0.117 -15.096,0.057 -1.176,0 -0.804,-0.002 -0.433,0 0,0"
             style="fill:#00003e;fill-opacity:1;fill-rule:nonzero;stroke:none"
             id="path50" />
        </g>
        <g
           id="g52"
           transform="translate(344.1524,67.0263)">
          <path
             d="m 0,0 c 1.29,8.554 3.934,16.482 8.765,23.61 1.838,2.712 4.275,4.783 6.876,6.696 3.452,2.541 7.146,4.686 10.924,6.693 0.366,0.193 0.727,0.393 1.153,0.623 -0.733,0.697 -1.553,1.161 -2.319,1.686 -6.1,4.177 -11.866,8.761 -17.123,13.974 -0.797,0.791 -0.81,0.783 -1.833,0.312 -4.709,-2.17 -8.517,-5.435 -11.634,-9.552 -2.748,-3.63 -5.116,-7.498 -7.291,-11.49 -0.195,-0.358 -0.324,-0.76 -0.724,-1.129 0.028,1.041 0.381,1.899 0.643,2.772 1.549,5.181 3.73,10.065 6.869,14.494 1.634,2.307 3.645,4.246 5.846,5.994 2.584,2.051 5.344,3.838 8.241,5.419 0.552,0.301 0.947,0.353 1.512,-0.044 6.632,-4.642 13.287,-9.25 19.937,-13.869 5.002,-3.473 10.004,-6.947 15.006,-10.421 0.275,-0.192 0.547,-0.388 0.956,-0.679 C 44.753,34.818 43.853,34.581 42.948,34.354 38.87,33.329 34.906,31.971 31.01,30.391 24.599,27.79 19.1,23.848 14.193,19.029 9.899,14.813 6.452,9.931 3.195,4.905 2.291,3.51 1.469,2.06 0.595,0.644 0.465,0.433 0.432,0.131 0,0"
             style="fill:#01fadc;fill-opacity:1;fill-rule:nonzero;stroke:none"
             id="path54" />
        </g>
        <g
           id="g56"
           transform="translate(367.5997,73.8652)">
          <path
             d="M 0,0 C -0.669,0.399 -1.147,0.686 -1.693,1.012 -0.716,1.875 0.363,2.485 1.364,3.2 2.596,4.08 3.875,4.892 5.095,5.786 5.578,6.141 5.933,6.086 6.414,5.81 9.269,4.173 12.14,2.566 15.006,0.949 16.011,0.382 17.017,-0.184 18.201,-0.852 16.832,-1.345 15.666,-1.75 14.511,-2.183 8.969,-4.256 3.612,-6.714 -1.285,-10.067 c -4.185,-2.866 -7.762,-6.404 -10.959,-10.319 -4.019,-4.921 -7.107,-10.431 -9.942,-16.092 -0.602,-1.202 -1.172,-2.421 -1.825,-3.612 -0.003,2.572 0.284,5.103 0.718,7.617 0.841,4.87 2.252,9.558 4.308,14.063 1.729,3.789 4.194,6.983 7.305,9.722 3.16,2.781 6.527,5.284 10.038,7.596 C -1.143,-0.764 -0.646,-0.43 0,0"
             style="fill:#01fbdc;fill-opacity:1;fill-rule:nonzero;stroke:none"
             id="path58" />
        </g>
        <g
           id="g60"
           transform="translate(343.3419,52.0146)">
          <path
             d="m 0,0 c -0.032,1.854 0.345,3.627 0.763,5.394 1.342,5.666 3.409,11.038 6.395,16.055 1.907,3.206 4.361,5.878 7.337,8.105 3.735,2.796 7.725,5.176 11.844,7.35 0.332,0.176 0.664,0.354 1.047,0.558 -0.292,0.605 -0.961,0.732 -1.348,1.177 -0.046,0.319 0.251,0.341 0.421,0.437 2.208,1.244 4.426,2.468 6.631,3.715 0.431,0.244 0.762,0.325 1.226,-0.002 3.619,-2.547 7.26,-5.06 10.892,-7.587 0.056,-0.039 0.08,-0.121 0.173,-0.268 -1.318,-0.34 -2.609,-0.661 -3.894,-1.007 C 36.181,32.496 31.002,30.701 26.151,28.096 19.77,24.669 14.406,19.986 9.828,14.396 6.298,10.083 3.208,5.465 0.397,0.655 0.268,0.435 0.132,0.218 0,0"
             style="fill:#01fadc;fill-opacity:1;fill-rule:nonzero;stroke:none"
             id="path62" />
        </g>
        <g
           id="g64"
           transform="translate(344.087,99.2714)">
          <path
             d="M 0,0 C 0.425,0.728 0.744,1.265 1.054,1.808 1.182,2.033 1.346,2.281 1.026,2.483 0.714,2.68 0.437,2.574 0.255,2.292 -0.161,1.646 -0.312,0.962 0,0 m -1.625,-5.303 c -0.547,-0.941 -0.972,-1.684 -1.409,-2.42 -0.147,-0.246 -0.237,-0.47 0.021,-0.696 0.275,-0.241 0.568,-0.368 0.914,-0.15 0.267,0.167 0.418,0.421 0.522,0.71 0.277,0.766 0.265,1.529 -0.048,2.556 m -3.685,5.05 c 0.592,-0.936 1.169,-1.862 1.764,-2.777 0.198,-0.306 0.089,-0.567 -0.019,-0.857 -0.282,-0.751 -0.456,-1.52 -0.287,-2.397 0.494,0.184 0.561,0.673 0.797,1.012 0.194,0.278 0.327,0.598 0.52,0.877 0.409,0.593 0.519,1.17 0.304,1.909 -0.457,1.564 -0.73,3.169 -0.511,4.82 0.167,1.265 0.565,2.434 1.34,3.45 1.026,1.347 2.196,1.368 3.298,0.085 C 2.044,5.697 2.209,5.524 2.299,5.322 2.629,4.576 2.9,5.139 3.238,5.411 3.625,4.833 4.066,4.328 3.529,3.619 3.237,3.233 3.543,2.888 3.663,2.554 4.437,0.419 4.542,-1.729 3.856,-3.905 3.813,-4.046 3.805,-4.209 3.494,-4.286 c -0.522,0.751 -1.07,1.548 -1.629,2.336 -0.204,0.289 -0.099,0.577 -0.053,0.873 0.075,0.481 0.285,0.951 0.124,1.453 -1.012,-0.704 -1.54,-1.995 -1.274,-3.134 0.258,-1.105 0.486,-2.219 0.6,-3.348 0.166,-1.66 -0.116,-3.246 -0.863,-4.738 -0.168,-0.336 -0.377,-0.661 -0.614,-0.951 -1.15,-1.404 -2.586,-1.381 -3.723,0.032 -0.256,0.319 -0.388,0.731 -0.746,0.981 -0.433,-0.348 -0.536,-0.916 -0.905,-1.297 -0.818,0.797 -0.882,0.958 -0.301,1.852 0.432,0.665 0.48,1.254 0.203,2.004 -0.895,2.43 -0.885,4.89 -0.025,7.338 0.05,0.142 0.106,0.282 0.176,0.415 0.032,0.063 0.105,0.105 0.226,0.217"
             style="fill:#01f7d9;fill-opacity:1;fill-rule:nonzero;stroke:none"
             id="path66" />
        </g>
      </g>
    </g>
  </g>
</svg>
